<?xml version="1.0" encoding="UTF-8" standalone="no"?>
<!-- Created with Inkscape (http://www.inkscape.org/) -->

<svg
   xmlns:dc="http://purl.org/dc/elements/1.1/"
   xmlns:cc="http://creativecommons.org/ns#"
   xmlns:rdf="http://www.w3.org/1999/02/22-rdf-syntax-ns#"
   xmlns:svg="http://www.w3.org/2000/svg"
   xmlns="http://www.w3.org/2000/svg"
   xmlns:sodipodi="http://sodipodi.sourceforge.net/DTD/sodipodi-0.dtd"
   xmlns:inkscape="http://www.inkscape.org/namespaces/inkscape"
   width="125mm"
   height="39mm"
   viewBox="0 0 125 39"
   version="1.1"
   id="svg7163"
   inkscape:version="0.92.3 (2405546, 2018-03-11)"
   sodipodi:docname="logo-ingelect.svg">
  <defs
     id="defs7157" />
  <sodipodi:namedview
     id="base"
     pagecolor="#ffffff"
     bordercolor="#666666"
     borderopacity="1.0"
     inkscape:pageopacity="0.0"
     inkscape:pageshadow="2"
     inkscape:zoom="1.6933333"
     inkscape:cx="236.22047"
     inkscape:cy="73.700787"
     inkscape:document-units="mm"
     inkscape:current-layer="layer1"
     showgrid="false"
     inkscape:window-width="1366"
     inkscape:window-height="704"
     inkscape:window-x="0"
     inkscape:window-y="27"
     inkscape:window-maximized="1" />
  <metadata
     id="metadata7160">
    <rdf:RDF>
      <cc:Work
         rdf:about="">
        <dc:format>image/svg+xml</dc:format>
        <dc:type
           rdf:resource="http://purl.org/dc/dcmitype/StillImage" />
        <dc:title></dc:title>
      </cc:Work>
    </rdf:RDF>
  </metadata>
  <g
     inkscape:label="Layer 1"
     inkscape:groupmode="layer"
     id="layer1"
     transform="translate(0,-258)">
    <g
       id="g13646"
       transform="matrix(0.56033816,0,0,-0.56033816,-13.210819,548.14308)"
       style="fill:#0995dd;fill-opacity:1"
       inkscape:export-xdpi="90"
       inkscape:export-ydpi="90">
      <path
         inkscape:connector-curvature="0"
         id="path7550"
         style="fill:#0995dd;fill-opacity:1;fill-rule:nonzero;stroke:none"
         d="m 99.6004,512.452 h 4.428 v -18.82 h -4.428 z" />
      <g
         transform="translate(106.8477,512.4522)"
         id="g7552"
         style="fill:#0995dd;fill-opacity:1">
        <path
           inkscape:connector-curvature="0"
           id="path7554"
           style="fill:#0995dd;fill-opacity:1;fill-rule:nonzero;stroke:none"
           d="M 0,0 H 5.087 L 8.724,-12.23 H 8.777 V 0 h 4.112 V -18.82 H 7.881 L 4.006,-5.852 H 3.954 V -18.82 H 0 Z" />
      </g>
      <g
         transform="translate(130.4364,506.7324)"
         id="g7556"
         style="fill:#0995dd;fill-opacity:1">
        <path
           inkscape:connector-curvature="0"
           id="path7558"
           style="fill:#0995dd;fill-opacity:1;fill-rule:nonzero;stroke:none"
           d="m 0,0 c 0,1.212 -0.132,3.137 -1.766,3.137 -1.819,0 -2.029,-1.845 -2.029,-6.853 0,-5.14 0.263,-6.801 2.029,-6.801 1.503,0 2.03,1.371 2.03,3.954 v 0.606 h -2.083 v 2.952 H 4.375 V -13.1 H 1.344 l -0.105,1.793 H 1.186 c -0.685,-1.687 -2.346,-2.162 -4.059,-2.162 -4.718,0 -5.509,3.506 -5.509,9.383 0,6.168 0.422,10.175 6.695,10.175 C 4.033,6.089 4.27,2.135 4.27,0 Z" />
      </g>
      <g
         transform="translate(137.1299,512.4522)"
         id="g7560"
         style="fill:#0995dd;fill-opacity:1">
        <path
           inkscape:connector-curvature="0"
           id="path7562"
           style="fill:#0995dd;fill-opacity:1;fill-rule:nonzero;stroke:none"
           d="M 0,0 H 10.886 V -3.585 H 4.428 v -3.769 h 6.062 v -3.585 H 4.428 v -4.296 h 6.748 V -18.82 H 0 Z" />
      </g>
      <g
         transform="translate(150.3078,512.4522)"
         id="g7564"
         style="fill:#0995dd;fill-opacity:1">
        <path
           inkscape:connector-curvature="0"
           id="path7566"
           style="fill:#0995dd;fill-opacity:1;fill-rule:nonzero;stroke:none"
           d="M 0,0 H 5.087 L 8.724,-12.23 H 8.777 V 0 h 4.112 V -18.82 H 7.881 L 4.006,-5.852 H 3.954 V -18.82 H 0 Z" />
      </g>
      <path
         inkscape:connector-curvature="0"
         id="path7568"
         style="fill:#0995dd;fill-opacity:1;fill-rule:nonzero;stroke:none"
         d="m 166.0154,512.452 h 4.428 v -18.82 h -4.428 z" />
      <g
         transform="translate(173.2633,512.4522)"
         id="g7570"
         style="fill:#0995dd;fill-opacity:1">
        <path
           inkscape:connector-curvature="0"
           id="path7572"
           style="fill:#0995dd;fill-opacity:1;fill-rule:nonzero;stroke:none"
           d="M 0,0 H 10.886 V -3.585 H 4.428 v -3.769 h 6.063 v -3.585 H 4.428 v -4.296 h 6.748 V -18.82 H 0 Z" />
      </g>
      <g
         transform="translate(190.869,504.5184)"
         id="g7574"
         style="fill:#0995dd;fill-opacity:1">
        <path
           inkscape:connector-curvature="0"
           id="path7576"
           style="fill:#0995dd;fill-opacity:1;fill-rule:nonzero;stroke:none"
           d="m 0,0 h 1.371 c 1.792,0 2.266,1.344 2.266,2.451 0,1.424 -0.527,2.372 -2.293,2.372 H 0 Z m -4.428,7.934 h 7.433 c 3.769,0 5.061,-2.32 5.061,-4.903 0,-2.741 -1.107,-4.085 -3.163,-4.586 v -0.053 c 2.82,-0.395 2.978,-2.161 3.031,-4.692 0.079,-3.716 0.211,-4.085 0.843,-4.349 v -0.237 H 4.006 c -0.342,0.633 -0.474,1.687 -0.474,3.822 0,3.269 -0.448,3.954 -1.845,3.954 H 0 v -7.776 h -4.428 z" />
      </g>
      <g
         transform="translate(203.5722,517.3548)"
         id="g7578"
         style="fill:#0995dd;fill-opacity:1">
        <path
           inkscape:connector-curvature="0"
           id="path7580"
           style="fill:#0995dd;fill-opacity:1;fill-rule:nonzero;stroke:none"
           d="M 0,0 H 4.112 L 1.476,-3.743 h -2.794 z m -1.924,-4.903 h 4.428 v -18.82 h -4.428 z" />
      </g>
      <g
         transform="translate(215.0638,509.0256)"
         id="g7582"
         style="fill:#0995dd;fill-opacity:1">
        <path
           inkscape:connector-curvature="0"
           id="path7584"
           style="fill:#0995dd;fill-opacity:1;fill-rule:nonzero;stroke:none"
           d="m 0,0 h -0.053 l -1.555,-8.382 h 3.216 z m -2.689,3.427 h 5.535 l 4.692,-18.82 H 2.952 l -0.685,3.585 h -4.508 l -0.658,-3.585 h -4.587 z" />
      </g>
      <g
         transform="translate(99.5209,484.3178)"
         id="g7586"
         style="fill:#0995dd;fill-opacity:1">
        <path
           inkscape:connector-curvature="0"
           id="path7588"
           style="fill:#0995dd;fill-opacity:1;fill-rule:nonzero;stroke:none"
           d="M 0,0 H 10.886 V -3.585 H 4.428 v -3.769 h 6.062 v -3.585 H 4.428 v -4.296 h 6.748 V -18.82 H 0 Z" />
      </g>
      <g
         transform="translate(112.6988,484.3178)"
         id="g7590"
         style="fill:#0995dd;fill-opacity:1">
        <path
           inkscape:connector-curvature="0"
           id="path7592"
           style="fill:#0995dd;fill-opacity:1;fill-rule:nonzero;stroke:none"
           d="m 0,0 h 4.428 v -15.235 h 6.405 V -18.82 H 0 Z" />
      </g>
      <g
         transform="translate(124.9013,484.3178)"
         id="g7594"
         style="fill:#0995dd;fill-opacity:1">
        <path
           inkscape:connector-curvature="0"
           id="path7596"
           style="fill:#0995dd;fill-opacity:1;fill-rule:nonzero;stroke:none"
           d="M 0,0 H 10.886 V -3.585 H 4.428 v -3.769 h 6.062 v -3.585 H 4.428 v -4.296 h 6.748 V -18.82 H 0 Z" />
      </g>
      <g
         transform="translate(145.9601,477.7809)"
         id="g7598"
         style="fill:#0995dd;fill-opacity:1">
        <path
           inkscape:connector-curvature="0"
           id="path7600"
           style="fill:#0995dd;fill-opacity:1;fill-rule:nonzero;stroke:none"
           d="m 0,0 c 0,2.741 -0.316,3.954 -1.792,3.954 -1.766,0 -1.924,-1.687 -1.924,-6.616 0,-5.588 0.184,-7.038 2.029,-7.038 1.634,0 1.819,1.872 1.845,4.797 h 4.27 v -0.659 c 0,-4.059 -1.133,-7.09 -6.616,-7.09 -5.667,0 -6.115,4.244 -6.115,9.911 0,4.823 0.264,9.647 6.537,9.647 3.901,0 6.036,-1.687 6.036,-6.115 L 4.27,0 Z" />
      </g>
      <g
         transform="translate(154.9729,480.7329)"
         id="g7602"
         style="fill:#0995dd;fill-opacity:1">
        <path
           inkscape:connector-curvature="0"
           id="path7604"
           style="fill:#0995dd;fill-opacity:1;fill-rule:nonzero;stroke:none"
           d="M 0,0 H -3.954 V 3.585 H 8.382 V 0 H 4.428 V -15.235 H 0 Z" />
      </g>
      <g
         transform="translate(169.3105,476.3839)"
         id="g7606"
         style="fill:#0995dd;fill-opacity:1">
        <path
           inkscape:connector-curvature="0"
           id="path7608"
           style="fill:#0995dd;fill-opacity:1;fill-rule:nonzero;stroke:none"
           d="m 0,0 h 1.371 c 1.792,0 2.266,1.344 2.266,2.451 0,1.424 -0.527,2.372 -2.293,2.372 H 0 Z m -4.428,7.934 h 7.433 c 3.769,0 5.061,-2.32 5.061,-4.903 0,-2.741 -1.107,-4.085 -3.163,-4.586 v -0.053 c 2.82,-0.395 2.978,-2.161 3.031,-4.692 0.079,-3.716 0.211,-4.085 0.843,-4.349 v -0.237 H 4.006 c -0.342,0.633 -0.474,1.687 -0.474,3.822 0,3.269 -0.448,3.954 -1.845,3.954 H 0 v -7.776 h -4.428 z" />
      </g>
      <g
         transform="translate(185.9144,489.2203)"
         id="g7610"
         style="fill:#0995dd;fill-opacity:1">
        <path
           inkscape:connector-curvature="0"
           id="path7612"
           style="fill:#0995dd;fill-opacity:1;fill-rule:nonzero;stroke:none"
           d="M 0,0 H 4.112 L 1.476,-3.743 h -2.794 z m 0.263,-21.139 c 1.793,0 2.056,1.66 2.056,6.826 0,5.167 -0.263,6.827 -2.056,6.827 -1.739,0 -2.003,-1.66 -2.003,-6.827 0,-5.166 0.264,-6.826 2.003,-6.826 m 0.027,-2.952 c -5.825,0 -6.616,3.795 -6.616,9.778 0,5.984 0.791,9.779 6.616,9.779 6.273,0 6.616,-4.56 6.616,-9.779 0,-5.218 -0.343,-9.778 -6.616,-9.778" />
      </g>
      <g
         transform="translate(195.1381,484.3178)"
         id="g7614"
         style="fill:#0995dd;fill-opacity:1">
        <path
           inkscape:connector-curvature="0"
           id="path7616"
           style="fill:#0995dd;fill-opacity:1;fill-rule:nonzero;stroke:none"
           d="M 0,0 H 5.087 L 8.724,-12.23 H 8.777 V 0 h 4.112 V -18.82 H 7.881 L 4.006,-5.852 H 3.954 V -18.82 H 0 Z" />
      </g>
      <path
         inkscape:connector-curvature="0"
         id="path7618"
         style="fill:#0995dd;fill-opacity:1;fill-rule:nonzero;stroke:none"
         d="m 210.8454,484.318 h 4.428 v -18.82 h -4.428 z" />
      <g
         transform="translate(225.9747,477.7809)"
         id="g7620"
         style="fill:#0995dd;fill-opacity:1">
        <path
           inkscape:connector-curvature="0"
           id="path7622"
           style="fill:#0995dd;fill-opacity:1;fill-rule:nonzero;stroke:none"
           d="m 0,0 c 0,2.741 -0.316,3.954 -1.793,3.954 -1.765,0 -1.924,-1.687 -1.924,-6.616 0,-5.588 0.185,-7.038 2.03,-7.038 1.634,0 1.819,1.872 1.845,4.797 h 4.27 v -0.659 c 0,-4.059 -1.133,-7.09 -6.616,-7.09 -5.667,0 -6.115,4.244 -6.115,9.911 0,4.823 0.264,9.647 6.537,9.647 3.901,0 6.036,-1.687 6.036,-6.115 L 4.27,0 Z" />
      </g>
      <g
         transform="translate(238.414,480.8911)"
         id="g7624"
         style="fill:#0995dd;fill-opacity:1">
        <path
           inkscape:connector-curvature="0"
           id="path7626"
           style="fill:#0995dd;fill-opacity:1;fill-rule:nonzero;stroke:none"
           d="m 0,0 h -0.053 l -1.555,-8.382 h 3.216 z m -2.689,3.427 h 5.535 l 4.692,-18.82 H 2.952 l -0.685,3.585 h -4.508 l -0.658,-3.585 h -4.587 z" />
      </g>
      <g
         transform="translate(27.7786,450.1119)"
         id="g7628"
         style="fill:#0995dd;fill-opacity:1">
        <path
           inkscape:connector-curvature="0"
           id="path7630"
           style="fill:#0995dd;fill-opacity:1;fill-rule:nonzero;stroke:none"
           d="m 0,0 c -0.224,-0.209 -0.517,-0.349 -0.872,-0.42 -0.184,-0.036 -0.389,-0.057 -0.606,-0.057 h -0.783 v 4.032 h 0.104 0.201 c 0.405,0 0.768,-0.053 1.084,-0.164 C -0.591,3.295 -0.351,3.15 -0.145,2.968 0.297,2.579 0.516,2.041 0.516,1.363 0.516,0.767 0.345,0.318 0,0 M 0.325,3.74 C 0.054,3.917 -0.248,4.042 -0.573,4.121 -0.662,4.141 -0.762,4.162 -0.872,4.179 -1.156,4.218 -1.509,4.238 -1.929,4.238 H -3.634 V 3.905 c 0.116,-0.015 0.2,-0.042 0.243,-0.088 0.046,-0.044 0.069,-0.144 0.069,-0.289 V -0.46 c 0,-0.15 -0.023,-0.244 -0.069,-0.292 -0.042,-0.041 -0.122,-0.069 -0.243,-0.088 v -0.332 h 2.156 c 0.221,0 0.425,0.007 0.606,0.017 0.254,0.019 0.467,0.045 0.642,0.084 0.3,0.067 0.574,0.183 0.81,0.337 0.321,0.218 0.573,0.5 0.749,0.864 0.186,0.361 0.275,0.762 0.275,1.199 0,0.493 -0.118,0.956 -0.346,1.382 C 1.035,3.141 0.721,3.484 0.325,3.74" />
      </g>
      <g
         transform="translate(38.3286,449.7123)"
         id="g7632"
         style="fill:#0995dd;fill-opacity:1">
        <path
           inkscape:connector-curvature="0"
           id="path7634"
           style="fill:#0995dd;fill-opacity:1;fill-rule:nonzero;stroke:none"
           d="m 0,0 c -0.091,-0.078 -0.295,-0.117 -0.605,-0.117 h -1.544 v 4.044 c 0,0.119 0.026,0.213 0.083,0.279 C -2.003,4.271 -1.92,4.3 -1.809,4.3 V 4.637 H -3.52 V 4.3 c 0.123,-0.011 0.204,-0.037 0.25,-0.087 0.046,-0.054 0.066,-0.147 0.066,-0.286 v -3.988 c 0,-0.138 -0.02,-0.233 -0.066,-0.283 -0.046,-0.054 -0.127,-0.082 -0.25,-0.096 V -0.772 H 0.598 V 0.452 H 0.234 C 0.175,0.222 0.099,0.073 0,0" />
      </g>
      <g
         transform="translate(49.2123,481.2151)"
         id="g7636"
         style="fill:#0995dd;fill-opacity:1">
        <path
           inkscape:connector-curvature="0"
           id="path7638"
           style="fill:#0995dd;fill-opacity:1;fill-rule:nonzero;stroke:none"
           d="M 0,0 V 11.863 H 0.026 C 0.008,12.057 0,12.253 0,12.452 c 0,1.214 0.354,2.349 0.965,3.304 1.095,1.711 3.011,2.849 5.186,2.849 2.482,0 4.63,-1.481 5.602,-3.61 0.355,-0.773 0.553,-1.634 0.553,-2.543 0,-0.199 -0.013,-0.395 -0.031,-0.589 h 0.031 V 0 -0.248 h -0.009 c -0.029,-0.815 -0.222,-1.586 -0.544,-2.293 -0.972,-2.128 -3.12,-3.611 -5.602,-3.611 -2.175,0 -4.091,1.14 -5.186,2.849 -0.572,0.89 -0.916,1.934 -0.962,3.055 H 0 Z m 14.83,-7.458 v -3.076 H 13.778 11.753 8.675 v 3.076 h 3.078 2.025 z m -24.967,-7.931 h 7.58 3.522 10.788 0.901 c 0.381,0 0.756,0.029 1.124,0.09 0.876,0.138 1.702,0.444 2.441,0.877 1.021,0.602 1.885,1.449 2.494,2.466 0.637,1.052 1.004,2.282 1.004,3.594 V 3.779 14.494 33.732 H 18.713 16.219 13.778 11.753 0.965 -2.557 -17.205 V 14.494 3.779 -8.362 c 0,-3.867 3.185,-7.027 7.068,-7.027" />
      </g>
      <g
         transform="translate(72.3074,462.0153)"
         id="g7640"
         style="fill:#0995dd;fill-opacity:1">
        <path
           inkscape:connector-curvature="0"
           id="path7642"
           style="fill:#0995dd;fill-opacity:1;fill-rule:nonzero;stroke:none"
           d="m 0,0 h 0.104 0.199 c 0.409,0 0.769,-0.055 1.084,-0.163 0.279,-0.103 0.525,-0.241 0.728,-0.425 0.444,-0.389 0.661,-0.927 0.661,-1.61 0,-0.584 -0.174,-1.041 -0.514,-1.361 C 2.034,-3.765 1.744,-3.903 1.387,-3.976 1.204,-4.016 1,-4.033 0.782,-4.033 H 0 Z m 1.387,-4.711 c 0.255,0.018 0.471,0.047 0.644,0.085 0.301,0.066 0.571,0.184 0.807,0.343 0.328,0.212 0.576,0.495 0.756,0.856 0.179,0.361 0.267,0.763 0.267,1.201 0,0.496 -0.113,0.955 -0.34,1.384 C 3.298,-0.414 2.982,-0.072 2.585,0.183 2.315,0.362 2.012,0.488 1.686,0.568 1.595,0.586 1.499,0.605 1.387,0.623 1.104,0.661 0.751,0.684 0.333,0.684 H -1.373 V 0.352 c 0.116,-0.016 0.201,-0.047 0.246,-0.089 0.042,-0.047 0.062,-0.143 0.062,-0.29 v -3.989 c 0,-0.152 -0.02,-0.243 -0.062,-0.287 -0.045,-0.046 -0.126,-0.074 -0.246,-0.09 v -0.331 h 2.155 c 0.223,0 0.424,0.004 0.605,0.013" />
      </g>
      <g
         transform="translate(33.815,449.7019)"
         id="g7644"
         style="fill:#0995dd;fill-opacity:1">
        <path
           inkscape:connector-curvature="0"
           id="path7646"
           style="fill:#0995dd;fill-opacity:1;fill-rule:nonzero;stroke:none"
           d="m 0,0 c -0.11,-0.073 -0.311,-0.106 -0.608,-0.106 h -1.968 v 2.095 h 1.609 c 0.19,0 0.318,-0.028 0.382,-0.075 0.069,-0.046 0.107,-0.141 0.13,-0.279 h 0.309 V 2.966 H -0.455 C -0.482,2.833 -0.539,2.736 -0.622,2.689 -0.707,2.639 -0.891,2.61 -1.166,2.61 h -1.41 v 1.367 h 1.929 c 0.264,0 0.435,-0.028 0.513,-0.083 0.085,-0.054 0.143,-0.16 0.19,-0.316 h 0.332 v 1.07 H -3.936 V 4.31 C -3.817,4.3 -3.733,4.273 -3.688,4.224 -3.642,4.169 -3.619,4.076 -3.619,3.938 V -0.05 c 0,-0.139 -0.023,-0.234 -0.069,-0.284 -0.045,-0.053 -0.129,-0.082 -0.248,-0.096 V -0.762 H 0.591 V 0.374 H 0.225 C 0.182,0.189 0.105,0.067 0,0" />
      </g>
      <g
         transform="translate(26.0644,457.5943)"
         id="g7648"
         style="fill:#0995dd;fill-opacity:1">
        <path
           inkscape:connector-curvature="0"
           id="path7650"
           style="fill:#0995dd;fill-opacity:1;fill-rule:nonzero;stroke:none"
           d="M 0,0 C 0.185,-0.111 0.4,-0.189 0.64,-0.23 0.696,-0.251 0.765,-0.254 0.842,-0.265 1.08,-0.292 1.407,-0.303 1.823,-0.303 H 3.968 L 3.966,0.028 C 3.844,0.038 3.76,0.085 3.717,0.15 3.674,0.223 3.65,0.373 3.65,0.615 v 3.791 c 0,0.115 0.028,0.206 0.077,0.259 0.055,0.061 0.136,0.096 0.241,0.108 V 5.105 H 2.291 V 4.765 C 2.409,4.756 2.489,4.726 2.534,4.68 2.575,4.634 2.597,4.533 2.597,4.389 V 0.425 H 2.05 C 1.604,0.425 1.291,0.451 1.103,0.495 1.009,0.511 0.924,0.546 0.842,0.58 0.762,0.611 0.689,0.656 0.624,0.706 0.415,0.862 0.257,1.071 0.151,1.322 c -0.103,0.255 -0.16,0.551 -0.16,0.89 0,0.266 0.031,0.539 0.096,0.81 0.064,0.272 0.166,0.55 0.299,0.826 0.126,0.281 0.254,0.49 0.381,0.632 0.025,0.024 0.051,0.053 0.075,0.083 0.11,0.098 0.231,0.18 0.365,0.243 V 5.105 H 0.842 -0.393 V 4.806 C -0.287,4.794 -0.215,4.775 -0.176,4.761 -0.138,4.75 -0.12,4.723 -0.12,4.684 -0.12,4.612 -0.18,4.474 -0.304,4.258 -0.404,4.089 -0.482,3.948 -0.532,3.833 -0.727,3.451 -0.86,3.116 -0.933,2.844 -1.009,2.573 -1.045,2.293 -1.045,2.019 -1.045,1.557 -0.957,1.156 -0.786,0.816 -0.609,0.479 -0.348,0.203 0,0" />
      </g>
      <g
         transform="translate(37.4368,462.2643)"
         id="g7652"
         style="fill:#0995dd;fill-opacity:1">
        <path
           inkscape:connector-curvature="0"
           id="path7654"
           style="fill:#0995dd;fill-opacity:1;fill-rule:nonzero;stroke:none"
           d="m 0,0 c 0.042,0.056 0.127,0.086 0.238,0.103 v 0.332 h -1.681 v -0.34 c 0.122,-0.009 0.203,-0.039 0.248,-0.085 0.042,-0.052 0.067,-0.147 0.067,-0.291 v -3.984 c 0,-0.139 -0.025,-0.237 -0.067,-0.287 -0.045,-0.051 -0.126,-0.085 -0.248,-0.09 v -0.331 h 1.681 v 0.331 c -0.111,0.01 -0.196,0.044 -0.238,0.1 -0.045,0.055 -0.071,0.138 -0.071,0.26 v 4.018 c 0,0.122 0.026,0.21 0.071,0.264" />
      </g>
      <g
         transform="translate(59.4648,462.2643)"
         id="g7656"
         style="fill:#0995dd;fill-opacity:1">
        <path
           inkscape:connector-curvature="0"
           id="path7658"
           style="fill:#0995dd;fill-opacity:1;fill-rule:nonzero;stroke:none"
           d="m 0,0 c 0.044,0.056 0.125,0.086 0.24,0.103 v 0.332 h -1.683 v -0.34 c 0.119,-0.009 0.198,-0.039 0.247,-0.085 0.045,-0.052 0.069,-0.147 0.069,-0.291 v -3.984 c 0,-0.139 -0.024,-0.237 -0.069,-0.287 -0.049,-0.051 -0.128,-0.085 -0.247,-0.09 V -4.973 H 0.24 v 0.331 c -0.115,0.01 -0.196,0.044 -0.24,0.1 -0.049,0.055 -0.07,0.138 -0.07,0.26 v 4.018 c 0,0.122 0.021,0.21 0.07,0.264" />
      </g>
      <g
         transform="translate(31.9098,457.6219)"
         id="g7660"
         style="fill:#0995dd;fill-opacity:1">
        <path
           inkscape:connector-curvature="0"
           id="path7662"
           style="fill:#0995dd;fill-opacity:1;fill-rule:nonzero;stroke:none"
           d="M 0,0 C -0.112,0 -0.192,0.039 -0.234,0.1 -0.278,0.162 -0.298,0.273 -0.298,0.442 V 4.034 L 2.448,1.306 V 0.367 C 2.448,0.226 2.428,0.14 2.383,0.081 2.337,0.036 2.252,0.005 2.131,0 V -0.33 H 3.499 V 0 C 3.387,0.005 3.309,0.039 3.265,0.081 3.228,0.123 3.204,0.234 3.204,0.41 v 3.951 c 0,0.14 0.024,0.239 0.068,0.295 0.046,0.059 0.123,0.089 0.227,0.091 v 0.33 H 2.152 V 4.747 C 2.277,4.737 2.358,4.711 2.4,4.667 2.444,4.624 2.466,4.539 2.466,4.417 V 2.729 L 0.137,5.077 H -1.38 v -0.33 c 0.09,-0.01 0.164,-0.036 0.219,-0.075 0.053,-0.035 0.079,-0.083 0.079,-0.137 V 0.398 C -1.082,0.239 -1.101,0.134 -1.148,0.081 -1.192,0.027 -1.277,0 -1.398,0 H -1.421 V -0.33 H 0 Z" />
      </g>
      <g
         transform="translate(62.3809,457.9826)"
         id="g7664"
         style="fill:#0995dd;fill-opacity:1">
        <path
           inkscape:connector-curvature="0"
           id="path7666"
           style="fill:#0995dd;fill-opacity:1;fill-rule:nonzero;stroke:none"
           d="m 0,0 h -0.782 v 4.033 h 0.104 0.203 C -0.074,4.033 0.291,3.978 0.61,3.869 0.886,3.766 1.126,3.629 1.335,3.445 1.773,3.055 1.994,2.517 1.994,1.835 1.994,1.251 1.826,0.794 1.48,0.474 1.257,0.268 0.962,0.13 0.61,0.056 0.422,0.016 0.219,0 0,0 M 2.06,-0.25 C 2.383,-0.038 2.633,0.245 2.812,0.605 2.927,0.846 3.009,1.102 3.05,1.369 3.073,1.511 3.08,1.656 3.08,1.807 3.08,1.956 3.073,2.105 3.05,2.243 2.998,2.578 2.896,2.89 2.74,3.19 2.512,3.618 2.198,3.961 1.807,4.216 1.534,4.394 1.234,4.52 0.905,4.601 0.817,4.619 0.718,4.638 0.61,4.655 0.322,4.693 -0.035,4.717 -0.451,4.717 H -1.416 -2.154 V 4.385 c 0.117,-0.017 0.201,-0.047 0.246,-0.09 0.043,-0.046 0.061,-0.142 0.061,-0.289 v -3.99 c 0,-0.151 -0.018,-0.243 -0.061,-0.287 -0.045,-0.046 -0.123,-0.073 -0.246,-0.09 v -0.33 H -1.416 0 c 0.222,0 0.429,0.003 0.61,0.013 0.252,0.017 0.465,0.047 0.641,0.085 0.299,0.065 0.569,0.184 0.809,0.343" />
      </g>
      <g
         transform="translate(67.9253,459.9734)"
         id="g7668"
         style="fill:#0995dd;fill-opacity:1">
        <path
           inkscape:connector-curvature="0"
           id="path7670"
           style="fill:#0995dd;fill-opacity:1;fill-rule:nonzero;stroke:none"
           d="M 0,0 H -0.658 L 0,1.763 0.004,1.776 0.663,0 Z M 1.429,-2.093 C 1.431,-2.117 1.435,-2.135 1.435,-2.156 1.435,-2.211 1.41,-2.251 1.364,-2.288 1.314,-2.325 1.249,-2.341 1.165,-2.346 v -0.336 h 1.661 v 0.336 C 2.688,-2.294 2.585,-2.178 2.517,-1.991 2.504,-1.967 2.499,-1.945 2.493,-1.935 L 0.723,2.726 H 0 -0.363 l -1.8,-4.68 c -0.047,-0.129 -0.101,-0.224 -0.159,-0.287 -0.047,-0.047 -0.108,-0.084 -0.172,-0.1 0,0 -0.023,-0.005 -0.034,-0.005 v -0.336 h 0.034 1.393 v 0.336 c -0.093,0.011 -0.161,0.033 -0.208,0.076 -0.049,0.041 -0.074,0.102 -0.074,0.177 0,0.024 0.008,0.064 0.022,0.114 0.011,0.051 0.026,0.102 0.052,0.155 l 0.416,1.11 H 0 0.922 l 0.481,-1.304 c 0.011,-0.029 0.018,-0.051 0.026,-0.075" />
      </g>
      <g
         transform="translate(61.3977,454.0286)"
         id="g7672"
         style="fill:#0995dd;fill-opacity:1">
        <path
           inkscape:connector-curvature="0"
           id="path7674"
           style="fill:#0995dd;fill-opacity:1;fill-rule:nonzero;stroke:none"
           d="M 0,0 C 0.125,-0.016 0.201,-0.045 0.248,-0.088 0.288,-0.134 0.313,-0.217 0.313,-0.34 V -2.022 L -0.432,-1.271 -2.02,0.321 H -3.535 V 0 c 0.092,-0.016 0.168,-0.045 0.222,-0.082 0.054,-0.035 0.08,-0.084 0.08,-0.139 v -4.127 c 0,-0.164 -0.021,-0.273 -0.066,-0.329 -0.047,-0.047 -0.128,-0.08 -0.251,-0.08 h -0.023 v -0.332 h 1.421 v 0.332 c -0.113,0 -0.193,0.043 -0.236,0.103 -0.04,0.06 -0.064,0.174 -0.064,0.338 v 3.594 l 2.02,-2 0.724,-0.728 v -0.939 c 0,-0.133 -0.018,-0.232 -0.061,-0.283 -0.049,-0.048 -0.13,-0.076 -0.252,-0.085 v -0.332 h 1.37 v 0.332 c -0.118,0.014 -0.195,0.043 -0.234,0.08 -0.042,0.045 -0.064,0.162 -0.064,0.334 v 3.954 c 0,0.138 0.024,0.232 0.071,0.29 0.045,0.06 0.117,0.093 0.227,0.099 V 0.321 H 0 Z" />
      </g>
      <g
         transform="translate(69.0634,454.0122)"
         id="g7676"
         style="fill:#0995dd;fill-opacity:1">
        <path
           inkscape:connector-curvature="0"
           id="path7678"
           style="fill:#0995dd;fill-opacity:1;fill-rule:nonzero;stroke:none"
           d="M 0,0 C 0.121,-0.01 0.201,-0.037 0.245,-0.086 0.293,-0.141 0.317,-0.234 0.317,-0.373 V -4.361 C 0.317,-4.499 0.293,-4.594 0.245,-4.644 0.201,-4.698 0.121,-4.726 0,-4.74 v -0.332 h 1.683 v 0.332 c -0.115,0.014 -0.195,0.047 -0.24,0.103 -0.046,0.054 -0.072,0.138 -0.072,0.259 v 4.016 c 0,0.125 0.026,0.212 0.072,0.269 0.045,0.056 0.125,0.083 0.24,0.097 V 0.337 H 0 Z" />
      </g>
      <g
         transform="translate(66.9645,450.1119)"
         id="g7680"
         style="fill:#0995dd;fill-opacity:1">
        <path
           inkscape:connector-curvature="0"
           id="path7682"
           style="fill:#0995dd;fill-opacity:1;fill-rule:nonzero;stroke:none"
           d="m 0,0 c -0.349,-0.316 -0.838,-0.477 -1.48,-0.477 h -0.053 -0.733 v 4.032 h 0.104 0.2 c 0.149,0 0.288,-0.006 0.429,-0.021 0.565,-0.061 1.032,-0.25 1.387,-0.566 C 0.293,2.579 0.512,2.041 0.512,1.363 0.512,0.767 0.344,0.318 0,0 M 0.961,3.161 C 0.782,3.391 0.567,3.585 0.323,3.74 0.048,3.917 -0.249,4.042 -0.58,4.121 c -0.248,0.058 -0.565,0.097 -0.953,0.114 -0.13,0 -0.259,0.003 -0.399,0.003 H -3.637 V 3.905 C -3.522,3.89 -3.44,3.863 -3.392,3.817 -3.349,3.773 -3.327,3.673 -3.327,3.528 V -0.46 c 0,-0.15 -0.022,-0.244 -0.065,-0.292 -0.043,-0.041 -0.125,-0.069 -0.245,-0.088 v -0.332 h 2.104 0.053 c 0.53,0 0.946,0.036 1.246,0.101 0.302,0.067 0.573,0.183 0.81,0.337 0.146,0.096 0.272,0.208 0.385,0.328 0.147,0.159 0.27,0.333 0.369,0.536 0.18,0.361 0.268,0.762 0.268,1.199 0,0.493 -0.114,0.956 -0.341,1.382 C 1.171,2.875 1.07,3.029 0.961,3.161" />
      </g>
      <g
         transform="translate(75.4337,450.0894)"
         id="g7684"
         style="fill:#0995dd;fill-opacity:1">
        <path
           inkscape:connector-curvature="0"
           id="path7686"
           style="fill:#0995dd;fill-opacity:1;fill-rule:nonzero;stroke:none"
           d="m 0,0 c -0.317,-0.383 -0.749,-0.576 -1.288,-0.576 -0.157,0 -0.308,0.019 -0.451,0.06 -0.312,0.083 -0.582,0.261 -0.813,0.533 -0.331,0.395 -0.5,0.907 -0.5,1.528 0,0.646 0.169,1.162 0.498,1.554 0.222,0.273 0.496,0.451 0.815,0.535 0.153,0.04 0.308,0.061 0.477,0.061 0.545,0 0.973,-0.188 1.28,-0.568 C 0.323,2.749 0.478,2.229 0.478,1.564 0.478,0.906 0.317,0.388 0,0 M 0.798,3.589 C 0.263,4.119 -0.423,4.385 -1.254,4.385 -1.421,4.385 -1.583,4.372 -1.739,4.35 -2.371,4.269 -2.911,4.005 -3.349,3.572 -3.9,3.034 -4.173,2.357 -4.173,1.53 c 0,-0.834 0.262,-1.508 0.789,-2.024 0.434,-0.431 0.987,-0.681 1.645,-0.762 0.141,-0.01 0.284,-0.021 0.434,-0.021 0.869,0 1.568,0.266 2.103,0.796 C 1.334,0.048 1.6,0.733 1.6,1.584 1.6,2.389 1.334,3.055 0.798,3.589" />
      </g>
      <g
         transform="translate(70.6849,456.2676)"
         id="g7688"
         style="fill:#0995dd;fill-opacity:1">
        <path
           inkscape:connector-curvature="0"
           id="path7690"
           style="fill:#0995dd;fill-opacity:1;fill-rule:nonzero;stroke:none"
           d="m 0,0 c -0.061,0 -0.129,-0.019 -0.196,-0.062 -0.07,-0.045 -0.14,-0.097 -0.21,-0.171 l -1.039,-1.133 h 0.278 l 1.137,0.693 c 0.123,0.071 0.205,0.141 0.245,0.195 0.051,0.055 0.075,0.117 0.075,0.186 0,0.079 -0.028,0.154 -0.088,0.208 C 0.145,-0.029 0.079,0 0,0" />
      </g>
      <g
         transform="translate(49.7389,460.2855)"
         id="g7692"
         style="fill:#0995dd;fill-opacity:1">
        <path
           inkscape:connector-curvature="0"
           id="path7694"
           style="fill:#0995dd;fill-opacity:1;fill-rule:nonzero;stroke:none"
           d="M 0,0 H -0.568 V 1.764 H 0.339 C 0.373,1.764 0.406,1.758 0.438,1.758 0.739,1.747 0.977,1.67 1.153,1.532 1.345,1.374 1.444,1.157 1.444,0.887 1.444,0.559 1.351,0.33 1.161,0.197 1.027,0.097 0.783,0.042 0.438,0.015 0.307,0.002 0.163,0 0,0 m 1.565,-2.994 h 1.292 v 0.303 C 2.758,-2.677 2.667,-2.64 2.6,-2.586 2.525,-2.524 2.446,-2.438 2.371,-2.307 L 1.283,-0.484 C 1.641,-0.425 1.929,-0.258 2.144,0.002 2.36,0.265 2.466,0.583 2.466,0.949 2.466,1.398 2.3,1.758 1.969,2.021 1.638,2.281 1.178,2.414 0.593,2.414 H 0.438 -1.939 v -0.34 c 0.123,-0.009 0.206,-0.039 0.25,-0.085 0.046,-0.053 0.072,-0.147 0.072,-0.291 v -3.985 c 0,-0.138 -0.026,-0.237 -0.072,-0.287 -0.044,-0.051 -0.127,-0.084 -0.25,-0.09 v -0.33 h 1.686 v 0.33 c -0.119,0.011 -0.2,0.052 -0.243,0.111 -0.043,0.063 -0.064,0.212 -0.064,0.446 v 1.472 H 0.211 L 0.438,-1.03 Z" />
      </g>
      <g
         transform="translate(48.3501,450.9913)"
         id="g7696"
         style="fill:#0995dd;fill-opacity:1">
        <path
           inkscape:connector-curvature="0"
           id="path7698"
           style="fill:#0995dd;fill-opacity:1;fill-rule:nonzero;stroke:none"
           d="m 0,0 c -0.05,-0.206 -0.119,-0.407 -0.219,-0.607 -0.258,0.211 -0.482,0.355 -0.669,0.434 -0.19,0.082 -0.389,0.129 -0.593,0.129 -0.074,0 -0.144,-0.006 -0.214,-0.017 -0.098,-0.011 -0.197,-0.03 -0.298,-0.056 -0.168,-0.052 -0.328,-0.122 -0.488,-0.221 l 0.228,-0.48 c 0.106,0.041 0.2,0.073 0.287,0.095 0.084,0.017 0.162,0.029 0.234,0.029 h 0.037 c 0.155,-0.012 0.309,-0.056 0.469,-0.14 0.174,-0.082 0.332,-0.211 0.475,-0.368 -0.143,-0.093 -0.29,-0.161 -0.443,-0.203 -0.152,-0.037 -0.316,-0.069 -0.501,-0.069 -0.509,0 -0.932,0.204 -1.266,0.595 -0.334,0.397 -0.497,0.902 -0.497,1.522 0,0.647 0.163,1.162 0.493,1.555 0.324,0.396 0.749,0.589 1.27,0.595 h 0.029 c 0.545,0 0.972,-0.188 1.276,-0.568 C -0.082,1.847 0.072,1.328 0.072,0.663 0.072,0.426 0.049,0.204 0,0 m 1.096,-1.256 c -0.052,-0.043 -0.124,-0.068 -0.22,-0.068 -0.067,0 -0.13,0.013 -0.182,0.029 -0.055,0.025 -0.104,0.056 -0.154,0.1 0.221,0.284 0.388,0.573 0.492,0.879 0.108,0.297 0.162,0.632 0.162,0.998 0,0.806 -0.266,1.472 -0.805,2.005 -0.533,0.53 -1.216,0.796 -2.049,0.796 H -1.695 C -2.522,3.478 -3.209,3.204 -3.754,2.676 -4.303,2.139 -4.582,1.458 -4.582,0.635 c 0,-0.444 0.087,-0.847 0.252,-1.226 0.169,-0.369 0.41,-0.698 0.725,-0.966 0.249,-0.215 0.527,-0.372 0.83,-0.466 0.303,-0.107 0.657,-0.155 1.063,-0.155 h 0.017 c 0.312,0 0.595,0.033 0.847,0.101 0.252,0.061 0.504,0.159 0.749,0.298 0.148,-0.139 0.304,-0.237 0.462,-0.298 0.159,-0.068 0.34,-0.101 0.549,-0.101 0.094,0 0.189,0.01 0.282,0.028 0.097,0.016 0.195,0.043 0.293,0.076 v 1.053 H 1.18 C 1.167,-1.131 1.14,-1.21 1.096,-1.256" />
      </g>
      <g
         transform="translate(47.4013,457.2916)"
         id="g7700"
         style="fill:#0995dd;fill-opacity:1">
        <path
           inkscape:connector-curvature="0"
           id="path7702"
           style="fill:#0995dd;fill-opacity:1;fill-rule:nonzero;stroke:none"
           d="M 0,0 V 1.125 H -0.37 C -0.412,0.948 -0.489,0.824 -0.597,0.754 -0.633,0.728 -0.683,0.715 -0.746,0.697 -0.855,0.671 -1.011,0.653 -1.199,0.653 h -1.967 v 2.089 h 1.607 c 0.187,0 0.313,-0.021 0.38,-0.073 0.068,-0.045 0.109,-0.143 0.129,-0.281 h 0.304 0.005 V 3.724 H -0.746 -1.05 C -1.078,3.591 -1.134,3.496 -1.218,3.448 -1.301,3.397 -1.484,3.368 -1.762,3.368 h -1.404 v 1.367 h 1.923 c 0.249,0 0.415,-0.02 0.497,-0.071 0,0 0.013,-0.006 0.016,-0.012 0.085,-0.055 0.146,-0.161 0.189,-0.317 h 0.337 V 5.408 H -0.746 -4.527 V 5.068 C -4.406,5.059 -4.323,5.029 -4.283,4.983 -4.236,4.93 -4.212,4.836 -4.212,4.692 V 0.707 C -4.212,0.569 -4.236,0.47 -4.283,0.42 -4.323,0.369 -4.406,0.336 -4.527,0.33 V 0 h 3.781 z" />
      </g>
      <g
         transform="translate(56.9914,459.9872)"
         id="g7704"
         style="fill:#0995dd;fill-opacity:1">
        <path
           inkscape:connector-curvature="0"
           id="path7706"
           style="fill:#0995dd;fill-opacity:1;fill-rule:nonzero;stroke:none"
           d="m 0,0 c -0.285,0.27 -0.742,0.486 -1.375,0.646 -0.105,0.026 -0.255,0.055 -0.45,0.106 -0.746,0.166 -1.116,0.411 -1.116,0.72 0,0.201 0.09,0.37 0.278,0.49 0.182,0.125 0.433,0.185 0.748,0.185 0.339,0 0.624,-0.066 0.857,-0.206 C -0.83,1.802 -0.716,1.633 -0.716,1.447 -0.716,1.407 -0.72,1.366 -0.73,1.332 -0.739,1.303 -0.754,1.256 -0.778,1.201 l 0.236,-0.21 0.866,0.804 c -0.273,0.353 -0.593,0.618 -0.96,0.79 -0.37,0.173 -0.807,0.253 -1.308,0.253 -0.592,0 -1.077,-0.142 -1.456,-0.431 -0.378,-0.288 -0.568,-0.649 -0.568,-1.089 0,-0.387 0.119,-0.7 0.362,-0.928 0.24,-0.238 0.651,-0.434 1.236,-0.588 0.145,-0.039 0.343,-0.09 0.598,-0.15 0.356,-0.084 0.587,-0.146 0.685,-0.201 0.153,-0.081 0.266,-0.183 0.345,-0.295 0.079,-0.111 0.11,-0.231 0.11,-0.374 0,-0.268 -0.114,-0.481 -0.343,-0.642 -0.231,-0.16 -0.539,-0.244 -0.925,-0.244 -0.354,0 -0.639,0.08 -0.858,0.229 -0.223,0.155 -0.335,0.344 -0.335,0.576 0,0.068 0.014,0.129 0.043,0.195 0.024,0.063 0.069,0.128 0.129,0.201 l -0.225,0.252 -1.123,-0.769 c 0.283,-0.503 0.614,-0.867 0.989,-1.089 0.372,-0.227 0.839,-0.339 1.404,-0.339 0.699,0 1.258,0.165 1.674,0.499 0.416,0.329 0.627,0.762 0.627,1.308 C 0.425,-0.616 0.284,-0.265 0,0" />
      </g>
      <g
         transform="translate(41.3935,462.369)"
         id="g7708"
         style="fill:#0995dd;fill-opacity:1">
        <path
           inkscape:connector-curvature="0"
           id="path7710"
           style="fill:#0995dd;fill-opacity:1;fill-rule:nonzero;stroke:none"
           d="M 0,0 H 0.013 C 0.085,0 0.137,-0.014 0.177,-0.048 0.219,-0.08 0.239,-0.13 0.239,-0.186 0.239,-0.212 0.233,-0.253 0.223,-0.301 0.214,-0.354 0.197,-0.408 0.177,-0.469 l -1.168,-3.406 -1.149,3.467 c -0.012,0.054 -0.026,0.107 -0.036,0.149 -0.011,0.047 -0.015,0.082 -0.015,0.118 0,0.036 0.021,0.079 0.072,0.105 C -2.076,-0.01 -2.01,0 -1.924,0 V 0.33 H -3.638 V 0 c 0.09,-0.01 0.172,-0.048 0.237,-0.105 0.061,-0.065 0.111,-0.154 0.15,-0.276 l 1.578,-4.696 h 1.069 l 1.602,4.647 c 0.054,0.167 0.108,0.272 0.161,0.325 C 1.214,-0.048 1.291,-0.018 1.391,0 V 0.33 H 0 Z" />
      </g>
      <g
         transform="translate(55.618,454.0122)"
         id="g7712"
         style="fill:#0995dd;fill-opacity:1">
        <path
           inkscape:connector-curvature="0"
           id="path7714"
           style="fill:#0995dd;fill-opacity:1;fill-rule:nonzero;stroke:none"
           d="m 0,0 c 0.121,-0.01 0.202,-0.037 0.246,-0.086 0.046,-0.055 0.07,-0.148 0.07,-0.287 v -3.988 c 0,-0.138 -0.024,-0.233 -0.07,-0.283 C 0.202,-4.698 0.121,-4.726 0,-4.74 v -0.332 h 1.683 v 0.332 c -0.113,0.014 -0.189,0.047 -0.237,0.103 -0.05,0.054 -0.071,0.138 -0.071,0.259 v 4.016 c 0,0.125 0.021,0.212 0.071,0.269 0.048,0.056 0.124,0.083 0.237,0.097 V 0.337 H 0 Z" />
      </g>
      <g
         transform="translate(53.4828,454.0122)"
         id="g7716"
         style="fill:#0995dd;fill-opacity:1">
        <path
           inkscape:connector-curvature="0"
           id="path7718"
           style="fill:#0995dd;fill-opacity:1;fill-rule:nonzero;stroke:none"
           d="m 0,0 c 0.119,-0.01 0.2,-0.037 0.241,-0.086 0.044,-0.055 0.064,-0.148 0.064,-0.287 v -3.959 h -0.544 c -0.45,0 -0.763,0.016 -0.948,0.06 -0.186,0.041 -0.345,0.113 -0.477,0.211 -0.212,0.161 -0.369,0.366 -0.474,0.616 -0.106,0.255 -0.161,0.551 -0.161,0.89 0,0.273 0.034,0.539 0.095,0.811 0.068,0.274 0.166,0.55 0.3,0.827 0.127,0.279 0.256,0.49 0.381,0.632 0.124,0.141 0.269,0.248 0.439,0.323 V 0.337 H -2.687 V 0.038 c 0.11,-0.009 0.181,-0.022 0.222,-0.044 0.037,-0.008 0.055,-0.039 0.055,-0.077 0,-0.073 -0.061,-0.209 -0.188,-0.422 -0.097,-0.172 -0.172,-0.31 -0.228,-0.427 -0.19,-0.386 -0.324,-0.713 -0.397,-0.99 -0.038,-0.133 -0.064,-0.271 -0.082,-0.407 -0.022,-0.137 -0.031,-0.277 -0.031,-0.416 0,-0.157 0.009,-0.304 0.031,-0.445 0.037,-0.282 0.114,-0.531 0.231,-0.759 0.174,-0.34 0.436,-0.611 0.78,-0.812 0.188,-0.115 0.403,-0.189 0.643,-0.236 0.234,-0.047 0.631,-0.075 1.183,-0.075 H 1.677 L 1.676,-4.74 C 1.555,-4.726 1.473,-4.687 1.428,-4.616 1.382,-4.548 1.36,-4.392 1.36,-4.148 v 3.786 c 0,0.118 0.028,0.202 0.08,0.262 0.054,0.063 0.126,0.094 0.237,0.104 V 0.337 H 0 Z" />
      </g>
      <path
         inkscape:connector-curvature="0"
         id="path7720"
         style="fill:#0995dd;fill-opacity:1;fill-rule:nonzero;stroke:none"
         d="m 86.4914,448.801 h 0.998 v 66.29 h -0.998 z" />
      <g
         transform="translate(99.5066,458.9879)"
         id="g7722"
         style="fill:#0995dd;fill-opacity:1">
        <path
           inkscape:connector-curvature="0"
           id="path7724"
           style="fill:#0995dd;fill-opacity:1;fill-rule:nonzero;stroke:none"
           d="M 0,0 H 5.868 V -1.932 H 2.387 V -3.964 H 5.655 V -5.896 H 2.387 v -4.249 H 0 Z" />
      </g>
      <g
         transform="translate(109.1385,457.1407)"
         id="g7726"
         style="fill:#0995dd;fill-opacity:1">
        <path
           inkscape:connector-curvature="0"
           id="path7728"
           style="fill:#0995dd;fill-opacity:1;fill-rule:nonzero;stroke:none"
           d="M 0,0 H -0.029 L -0.867,-4.518 H 0.867 Z M -1.449,1.847 H 1.535 L 4.063,-8.297 H 1.591 l -0.369,1.932 h -2.43 l -0.355,-1.932 h -2.472 z" />
      </g>
      <g
         transform="translate(117.9597,455.4643)"
         id="g7730"
         style="fill:#0995dd;fill-opacity:1">
        <path
           inkscape:connector-curvature="0"
           id="path7732"
           style="fill:#0995dd;fill-opacity:1;fill-rule:nonzero;stroke:none"
           d="m 0,0 c 0,1.478 -0.171,2.131 -0.966,2.131 -0.952,0 -1.037,-0.909 -1.037,-3.566 0,-3.012 0.099,-3.794 1.094,-3.794 0.881,0 0.98,1.009 0.994,2.586 h 2.302 v -0.355 c 0,-2.188 -0.611,-3.822 -3.566,-3.822 -3.055,0 -3.296,2.288 -3.296,5.342 0,2.6 0.142,5.201 3.523,5.201 2.103,0 3.254,-0.91 3.254,-3.297 L 2.302,0 Z" />
      </g>
      <g
         transform="translate(127.8895,452.1964)"
         id="g7734"
         style="fill:#0995dd;fill-opacity:1">
        <path
           inkscape:connector-curvature="0"
           id="path7736"
           style="fill:#0995dd;fill-opacity:1;fill-rule:nonzero;stroke:none"
           d="m 0,0 c 0,-1.989 -0.568,-3.552 -3.339,-3.552 -2.771,0 -3.339,1.563 -3.339,3.552 v 6.792 h 2.387 v -7.488 c 0,-0.796 0.313,-1.265 0.952,-1.265 0.639,0 0.952,0.469 0.952,1.265 V 6.792 H 0 Z" />
      </g>
      <g
         transform="translate(129.2372,458.9879)"
         id="g7738"
         style="fill:#0995dd;fill-opacity:1">
        <path
           inkscape:connector-curvature="0"
           id="path7740"
           style="fill:#0995dd;fill-opacity:1;fill-rule:nonzero;stroke:none"
           d="M 0,0 H 2.387 V -8.212 H 5.84 v -1.933 H 0 Z" />
      </g>
      <g
         transform="translate(136.2407,457.0555)"
         id="g7742"
         style="fill:#0995dd;fill-opacity:1">
        <path
           inkscape:connector-curvature="0"
           id="path7744"
           style="fill:#0995dd;fill-opacity:1;fill-rule:nonzero;stroke:none"
           d="M 0,0 H -2.131 V 1.932 H 4.518 V 0 H 2.387 V -8.212 H 0 Z" />
      </g>
      <g
         transform="translate(144.125,457.1407)"
         id="g7746"
         style="fill:#0995dd;fill-opacity:1">
        <path
           inkscape:connector-curvature="0"
           id="path7748"
           style="fill:#0995dd;fill-opacity:1;fill-rule:nonzero;stroke:none"
           d="M 0,0 H -0.029 L -0.867,-4.518 H 0.867 Z M -1.449,1.847 H 1.535 L 4.063,-8.297 H 1.591 l -0.369,1.932 h -2.43 l -0.355,-1.932 h -2.472 z" />
      </g>
      <g
         transform="translate(151.3405,450.605)"
         id="g7750"
         style="fill:#0995dd;fill-opacity:1">
        <path
           inkscape:connector-curvature="0"
           id="path7752"
           style="fill:#0995dd;fill-opacity:1;fill-rule:nonzero;stroke:none"
           d="m 0,0 h 0.639 c 1.109,0 1.492,0.441 1.492,3.481 0,2.472 -0.199,3.14 -1.463,3.14 H 0 Z m -2.387,8.383 h 3.538 c 2.359,0 3.367,-1.222 3.367,-4.746 0,-3.68 -0.469,-5.399 -3.609,-5.399 h -3.296 z" />
      </g>
      <g
         transform="translate(163.187,450.605)"
         id="g7754"
         style="fill:#0995dd;fill-opacity:1">
        <path
           inkscape:connector-curvature="0"
           id="path7756"
           style="fill:#0995dd;fill-opacity:1;fill-rule:nonzero;stroke:none"
           d="m 0,0 h 0.639 c 1.109,0 1.492,0.441 1.492,3.481 0,2.472 -0.199,3.14 -1.463,3.14 H 0 Z m -2.387,8.383 h 3.538 c 2.358,0 3.367,-1.222 3.367,-4.746 0,-3.68 -0.468,-5.399 -3.609,-5.399 h -3.296 z" />
      </g>
      <g
         transform="translate(168.9537,458.9879)"
         id="g7758"
         style="fill:#0995dd;fill-opacity:1">
        <path
           inkscape:connector-curvature="0"
           id="path7760"
           style="fill:#0995dd;fill-opacity:1;fill-rule:nonzero;stroke:none"
           d="M 0,0 H 5.868 V -1.932 H 2.387 V -3.964 H 5.655 V -5.896 H 2.387 v -2.316 h 3.637 v -1.933 H 0 Z" />
      </g>
      <path
         inkscape:connector-curvature="0"
         id="path7762"
         style="fill:#0995dd;fill-opacity:1;fill-rule:nonzero;stroke:none"
         d="m 179.7914,458.988 h 2.387 v -10.145 h -2.387 z" />
      <g
         transform="translate(183.6985,458.9879)"
         id="g7764"
         style="fill:#0995dd;fill-opacity:1">
        <path
           inkscape:connector-curvature="0"
           id="path7766"
           style="fill:#0995dd;fill-opacity:1;fill-rule:nonzero;stroke:none"
           d="M 0,0 H 2.742 L 4.703,-6.593 H 4.731 V 0 h 2.217 v -10.145 h -2.7 L 2.16,-3.154 H 2.131 v -6.991 H 0 Z" />
      </g>
      <g
         transform="translate(196.4123,455.9046)"
         id="g7768"
         style="fill:#0995dd;fill-opacity:1">
        <path
           inkscape:connector-curvature="0"
           id="path7770"
           style="fill:#0995dd;fill-opacity:1;fill-rule:nonzero;stroke:none"
           d="m 0,0 c 0,0.654 -0.071,1.691 -0.952,1.691 -0.98,0 -1.094,-0.995 -1.094,-3.694 0,-2.771 0.142,-3.666 1.094,-3.666 0.81,0 1.094,0.739 1.094,2.131 v 0.327 H -0.98 V -1.62 H 2.359 V -7.061 H 0.725 L 0.668,-6.095 H 0.639 C 0.27,-7.004 -0.625,-7.26 -1.549,-7.26 c -2.543,0 -2.969,1.889 -2.969,5.058 0,3.324 0.227,5.484 3.609,5.484 3.083,0 3.211,-2.131 3.211,-3.282 z" />
      </g>
      <g
         transform="translate(200.0197,458.9879)"
         id="g7772"
         style="fill:#0995dd;fill-opacity:1">
        <path
           inkscape:connector-curvature="0"
           id="path7774"
           style="fill:#0995dd;fill-opacity:1;fill-rule:nonzero;stroke:none"
           d="M 0,0 H 5.868 V -1.932 H 2.387 V -3.964 H 5.655 V -5.896 H 2.387 v -2.316 h 3.637 v -1.933 H 0 Z" />
      </g>
      <g
         transform="translate(207.122,458.9879)"
         id="g7776"
         style="fill:#0995dd;fill-opacity:1">
        <path
           inkscape:connector-curvature="0"
           id="path7778"
           style="fill:#0995dd;fill-opacity:1;fill-rule:nonzero;stroke:none"
           d="M 0,0 H 2.742 L 4.703,-6.593 H 4.731 V 0 h 2.217 v -10.145 h -2.7 L 2.16,-3.154 H 2.131 v -6.991 H 0 Z" />
      </g>
      <path
         inkscape:connector-curvature="0"
         id="path7780"
         style="fill:#0995dd;fill-opacity:1;fill-rule:nonzero;stroke:none"
         d="m 215.5884,458.988 h 2.387 v -10.145 h -2.387 z" />
      <g
         transform="translate(219.4944,458.9879)"
         id="g7782"
         style="fill:#0995dd;fill-opacity:1">
        <path
           inkscape:connector-curvature="0"
           id="path7784"
           style="fill:#0995dd;fill-opacity:1;fill-rule:nonzero;stroke:none"
           d="M 0,0 H 5.868 V -1.932 H 2.387 V -3.964 H 5.655 V -5.896 H 2.387 v -2.316 h 3.637 v -1.933 H 0 Z" />
      </g>
      <g
         transform="translate(228.9836,454.7112)"
         id="g7786"
         style="fill:#0995dd;fill-opacity:1">
        <path
           inkscape:connector-curvature="0"
           id="path7788"
           style="fill:#0995dd;fill-opacity:1;fill-rule:nonzero;stroke:none"
           d="M 0,0 H 0.739 C 1.705,0 1.961,0.725 1.961,1.321 1.961,2.089 1.677,2.6 0.725,2.6 H 0 Z M -2.387,4.277 H 1.62 c 2.032,0 2.728,-1.251 2.728,-2.643 0,-1.478 -0.597,-2.202 -1.705,-2.472 V -0.867 C 4.163,-1.08 4.248,-2.032 4.277,-3.396 4.319,-5.399 4.391,-5.598 4.731,-5.74 V -5.868 H 2.16 c -0.185,0.341 -0.256,0.909 -0.256,2.06 0,1.762 -0.241,2.132 -0.995,2.132 H 0 v -4.192 h -2.387 z" />
      </g>
      <g
         transform="translate(235.8301,461.6306)"
         id="g7790"
         style="fill:#0995dd;fill-opacity:1">
        <path
           inkscape:connector-curvature="0"
           id="path7792"
           style="fill:#0995dd;fill-opacity:1;fill-rule:nonzero;stroke:none"
           d="M 0,0 H 2.216 L 0.796,-2.018 H -0.71 Z M -1.037,-2.643 H 1.35 v -10.145 h -2.387 z" />
      </g>
      <g
         transform="translate(242.024,457.1407)"
         id="g7794"
         style="fill:#0995dd;fill-opacity:1">
        <path
           inkscape:connector-curvature="0"
           id="path7796"
           style="fill:#0995dd;fill-opacity:1;fill-rule:nonzero;stroke:none"
           d="M 0,0 H -0.029 L -0.867,-4.518 H 0.867 Z M -1.449,1.847 H 1.534 L 4.064,-8.297 H 1.591 l -0.369,1.932 h -2.43 l -0.355,-1.932 h -2.472 z" />
      </g>
    </g>
  </g>
</svg>
