<?xml version="1.0" standalone="no"?>
<!DOCTYPE svg PUBLIC "-//W3C//DTD SVG 20010904//EN"
 "http://www.w3.org/TR/2001/REC-SVG-20010904/DTD/svg10.dtd">
<svg version="1.0" xmlns="http://www.w3.org/2000/svg"
 width="640.000000pt" height="480.000000pt" viewBox="0 0 640.000000 480.000000"
 preserveAspectRatio="xMidYMid meet">
<metadata>
Created by potrace 1.16, written by Peter Selinger 2001-2019
</metadata>
<g transform="translate(0.000000,480.000000) scale(0.100000,-0.100000)"
fill="#000000" stroke="none">
<path d="M0 2620 c0 -2008 1 -2181 16 -2187 9 -3 26 0 38 7 11 8 46 17 76 21
30 4 56 13 58 19 2 6 16 17 32 25 26 13 28 21 40 112 7 54 15 129 19 167 6 66
7 70 35 77 49 13 311 -6 337 -25 26 -18 114 -22 124 -6 3 6 15 10 25 10 12 0
28 16 42 41 27 48 62 69 117 69 43 0 76 -29 101 -89 13 -33 13 -35 -32 -125
-6 -12 -6 -22 1 -29 7 -7 11 -7 11 -1 0 14 61 5 65 -10 23 -86 71 -225 83
-239 8 -9 32 -22 52 -28 35 -11 40 -10 70 20 41 39 89 53 160 49 82 -5 78 -25
-17 -84 -43 -26 -84 -54 -91 -60 -6 -7 -21 -15 -31 -19 -20 -6 -51 -51 -81
-115 -9 -19 -40 -70 -68 -112 -29 -42 -52 -84 -52 -92 0 -14 99 -16 1027 -16
565 0 1023 4 1017 8 -5 5 -34 26 -64 47 -62 44 -218 174 -239 199 -11 13 -11
17 4 22 24 10 11 92 -18 119 -12 11 -23 27 -24 35 -3 29 -34 176 -54 263 -23
94 -25 145 -14 248 8 78 14 99 26 99 5 0 9 -46 9 -104 0 -88 3 -105 17 -110
11 -5 13 -10 6 -17 -11 -11 -6 -49 6 -49 4 0 8 -12 9 -27 3 -35 32 -113 43
-113 4 0 11 -10 14 -22 4 -13 30 -46 59 -73 l51 -51 23 28 c13 15 26 27 30 27
4 -1 14 -1 22 0 12 1 12 4 -2 15 -16 12 -16 14 7 26 19 10 22 16 14 27 -6 7
-8 13 -4 13 4 0 -11 18 -34 40 -22 22 -37 40 -31 40 5 0 10 7 10 15 0 9 6 12
15 9 26 -10 16 14 -20 51 -25 24 -31 35 -20 35 9 0 13 4 10 10 -3 5 -1 10 4
10 6 0 11 5 11 11 0 6 -9 9 -20 6 -11 -3 -20 -1 -20 4 0 5 -7 9 -15 9 -8 0
-15 5 -15 10 0 11 13 13 24 3 9 -9 46 -11 46 -2 0 28 -13 35 -54 32 -38 -4
-45 -1 -60 23 -10 14 -31 40 -47 57 -26 27 -28 32 -14 47 20 22 19 35 -2 56
-10 10 -18 22 -19 28 0 6 -4 19 -9 29 -8 19 10 47 31 47 8 0 14 4 14 10 0 5 8
6 17 3 12 -5 15 -2 10 10 -8 20 13 23 32 5 11 -11 11 -9 2 10 -10 18 -10 27 0
39 12 13 14 13 25 -1 10 -15 12 -15 17 3 3 15 13 20 38 20 19 -1 48 2 64 6 27
6 32 3 43 -24 8 -18 18 -28 27 -25 7 3 16 0 20 -5 3 -6 10 -9 15 -6 5 3 25 -4
44 -15 20 -11 42 -17 50 -14 16 6 21 84 5 84 -5 0 -14 12 -19 26 -8 21 -15 25
-38 20 -22 -5 -29 -2 -38 18 -19 40 17 86 67 86 15 0 31 5 34 10 4 6 15 8 25
5 10 -3 46 7 83 25 80 38 213 73 235 62 34 -17 177 7 194 32 4 6 10 4 13 -7 5
-13 15 -15 43 -12 61 9 73 11 72 16 -7 55 -37 74 -144 91 -58 9 -81 9 -101 0
-32 -15 -48 -15 -40 -2 4 6 -5 23 -19 37 -24 24 -35 27 -105 28 -80 2 -126 17
-145 47 -13 21 -6 29 25 30 13 1 36 10 51 20 14 10 33 18 40 18 8 0 18 3 22 7
3 4 12 8 19 9 7 1 20 5 30 9 16 7 18 4 21 -27 1 -17 64 -26 98 -15 15 5 30 17
33 28 5 14 14 19 33 17 20 -2 29 3 37 20 5 12 18 22 27 22 10 0 18 5 18 10 0
6 9 10 20 10 11 0 20 -5 20 -12 0 -6 3 -9 6 -6 7 8 -24 68 -35 68 -11 0 -101
138 -101 156 0 7 -5 16 -10 19 -6 4 -8 11 -4 16 3 5 -2 23 -10 41 -9 17 -16
44 -16 60 0 16 -5 27 -12 25 -6 -1 -15 16 -20 38 -5 22 -13 44 -18 49 -4 4
-35 5 -66 1 -50 -6 -56 -9 -41 -20 19 -14 23 -45 6 -45 -6 0 -9 -7 -6 -15 4
-8 2 -17 -2 -20 -5 -2 -12 -22 -16 -42 -7 -39 -34 -104 -46 -113 -4 -3 -15
-24 -24 -48 -10 -23 -21 -42 -27 -42 -5 0 -6 -4 -3 -10 3 -5 2 -10 -3 -10 -5
0 -17 -20 -26 -45 -21 -53 -28 -59 -63 -51 l-25 7 24 23 c34 35 48 54 48 66 0
5 5 10 10 10 6 0 10 7 10 15 0 25 -16 17 -41 -20 -13 -19 -32 -38 -42 -41 -9
-3 -15 -9 -12 -14 3 -4 -4 -6 -15 -3 -19 5 -18 8 12 28 52 35 88 95 93 150 1
6 6 9 13 8 7 -2 12 1 12 6 0 5 -21 14 -47 20 -38 8 -51 7 -64 -5 -9 -8 -27
-13 -40 -10 -16 2 -30 -3 -41 -17 -14 -18 -20 -19 -42 -9 -14 6 -33 9 -41 6
-8 -4 -15 -2 -15 4 0 6 -9 8 -20 5 -11 -3 -28 1 -37 8 -12 10 -14 10 -9 2 5
-10 -2 -13 -28 -13 -19 0 -38 5 -41 10 -5 8 -11 8 -19 1 -15 -13 -54 -3 -84
20 -14 11 -33 16 -52 12 -17 -2 -30 0 -30 6 0 6 -6 11 -14 11 -23 0 -76 -34
-76 -48 0 -7 -4 -10 -10 -7 -5 3 -10 21 -10 40 0 34 -9 40 -75 52 -11 2 -32 8
-47 14 -22 9 -31 8 -52 -8 -29 -21 -35 -51 -35 -181 0 -99 -3 -112 -27 -112
-8 0 -12 5 -9 10 3 6 -3 10 -13 10 -18 0 -19 4 -9 48 13 60 12 113 -3 122 -8
5 -9 10 -2 14 6 3 8 15 5 25 -3 10 0 28 6 39 8 16 6 21 -12 31 -13 7 -27 22
-32 33 -6 12 -16 24 -24 26 -9 3 -11 0 -6 -9 5 -8 -1 -6 -12 4 -24 21 -37 71
-24 95 6 11 2 52 -9 112 -10 52 -21 151 -23 220 -3 69 -9 133 -12 143 -4 9 -3
17 1 17 5 0 9 24 9 53 0 28 3 59 7 67 21 46 28 84 17 96 -9 10 -9 14 0 14 6 0
10 6 9 13 -2 6 2 11 8 10 7 -1 17 18 23 42 11 44 28 72 64 104 9 8 17 22 17
29 0 8 6 12 14 9 7 -3 20 3 28 13 9 10 22 20 29 23 11 5 10 8 -3 17 -26 16
-22 30 7 30 14 0 25 5 25 10 0 6 12 10 26 10 14 0 23 3 21 8 -8 13 12 52 28
52 12 0 13 -4 6 -18 -7 -14 -6 -19 4 -19 8 0 16 6 19 14 3 7 15 13 27 13 17 0
19 -3 10 -14 -9 -11 -6 -17 15 -31 16 -10 22 -20 16 -24 -7 -4 -8 -12 -2 -21
8 -13 12 -12 24 5 19 25 16 37 -12 50 -24 11 -28 20 -11 31 6 3 15 0 20 -7 9
-14 13 -6 10 23 -1 9 3 19 9 23 6 4 10 -6 10 -25 0 -18 4 -29 10 -25 6 3 10 0
11 -7 0 -7 5 -3 11 10 6 13 17 21 24 18 7 -3 15 2 18 10 3 8 10 14 16 14 7 0
8 -6 0 -19 -12 -24 -13 -61 -2 -61 5 0 14 -10 21 -22 l11 -23 -6 23 c-3 12 -1
22 5 22 6 0 11 8 11 18 0 14 -2 15 -10 2 -7 -11 -10 -7 -10 17 0 17 4 35 10
38 5 3 10 1 10 -5 0 -6 14 5 31 25 38 43 50 44 42 5 -3 -20 -1 -30 6 -30 7 0
9 5 5 13 -6 8 -3 8 9 -1 9 -8 21 -11 26 -8 5 4 12 2 16 -4 15 -24 35 -9 35 25
0 33 -1 34 -20 23 -31 -19 -46 2 -34 49 7 28 15 39 34 43 l25 6 -22 12 c-19
11 -21 16 -11 32 7 10 21 21 31 24 10 2 16 9 13 15 -7 11 28 34 37 24 4 -3 12
-1 19 4 7 6 50 16 96 23 64 10 96 10 142 1 33 -7 75 -9 94 -6 40 8 97 -9 142
-42 17 -13 40 -23 50 -23 11 0 26 -9 34 -19 7 -11 17 -18 22 -15 4 3 8 -2 8
-11 0 -11 5 -15 16 -11 8 3 32 -3 52 -13 20 -10 62 -27 92 -36 51 -16 105 -59
94 -76 -3 -6 11 -15 36 -24 31 -11 40 -20 35 -35 -4 -13 2 -19 24 -23 23 -5
28 -10 24 -26 -5 -21 3 -27 42 -33 11 -2 27 -11 36 -21 9 -9 24 -15 32 -11 25
9 14 -29 -12 -42 -34 -17 -34 -22 -2 -18 33 4 52 -13 30 -27 -10 -6 -8 -10 11
-18 l25 -10 -27 0 c-16 -1 -28 -3 -28 -4 0 -12 36 -72 56 -94 26 -28 30 -43
13 -43 -8 0 -8 -4 0 -14 7 -8 14 -22 16 -32 2 -11 9 -39 15 -63 6 -25 10 -54
9 -65 -1 -12 1 -29 6 -38 4 -10 2 -32 -4 -49 -6 -17 -8 -36 -4 -42 11 -18 11
-47 0 -54 -5 -3 -5 -8 0 -12 10 -7 1 -135 -11 -163 -7 -15 -3 -18 19 -18 20 0
42 -14 77 -49 35 -35 59 -51 81 -53 27 -2 33 -8 35 -30 3 -25 0 -28 -27 -28
-29 0 -30 -2 -36 -57 -13 -121 -29 -188 -50 -213 -70 -80 -77 -101 -101 -295
-3 -27 -7 -57 -9 -65 -1 -8 -8 -51 -15 -95 -18 -119 -47 -219 -83 -287 -43
-81 -51 -95 -69 -115 -9 -10 -19 -28 -23 -41 -7 -23 -1 -33 48 -80 9 -9 17
-22 17 -28 0 -6 6 -24 14 -40 27 -53 38 -238 23 -364 -13 -110 -17 -135 -22
-147 -5 -16 -35 -5 -35 12 0 14 -22 26 -58 32 -14 2 -21 0 -18 -6 4 -5 0 -13
-7 -18 -18 -10 -42 -54 -39 -71 2 -6 -2 -12 -7 -12 -23 0 -40 -49 -46 -134
l-7 -89 43 6 c24 3 63 9 87 13 51 8 52 1 17 -74 -14 -30 -25 -60 -25 -67 0 -8
-15 -24 -32 -36 -18 -13 -49 -38 -68 -56 -19 -18 -44 -40 -55 -48 -18 -13 18
-14 300 -15 182 0 326 4 335 10 8 5 45 40 83 77 46 46 67 62 67 50 0 -26 -39
-99 -64 -119 -20 -17 12 -18 646 -18 l667 0 -43 87 c-24 49 -46 99 -49 113 -7
29 -80 126 -122 163 l-29 25 27 39 c33 48 34 61 2 61 -14 0 -25 -3 -25 -7 0
-4 -9 -7 -20 -8 -16 -1 -20 4 -20 26 0 36 -18 58 -55 65 -24 5 -33 2 -43 -14
-10 -17 -10 -21 4 -27 12 -4 13 -8 3 -13 -7 -5 -23 -3 -35 2 -19 9 -21 14 -13
31 8 15 8 22 -2 28 -10 6 -9 9 5 15 15 6 13 9 -14 20 -40 17 -35 17 -55 -2
-22 -23 -30 -10 -11 18 20 28 20 52 1 68 -11 9 -20 8 -45 -10 -16 -12 -30 -27
-30 -35 0 -34 -67 -14 -148 44 -17 11 -37 21 -46 21 -8 0 -24 9 -35 21 -12 13
-25 18 -33 13 -7 -4 -10 -3 -5 1 4 5 0 16 -9 26 -16 17 -12 23 53 88 75 74 91
100 71 112 -7 5 -13 12 -13 16 -1 17 -38 63 -51 63 -8 0 -14 8 -14 18 0 9 -11
31 -25 47 -36 43 -38 47 -59 80 -21 35 -144 154 -151 146 -7 -6 -4 -140 4
-176 10 -49 1 -97 -20 -102 -10 -3 -17 -9 -14 -13 2 -4 -6 -13 -20 -20 -21
-11 -28 -9 -66 19 -35 25 -39 31 -22 31 12 0 29 7 37 16 9 8 16 12 16 7 0 -4
6 3 13 17 10 20 10 37 0 85 -7 33 -13 72 -13 87 0 18 -13 41 -35 65 -33 35
-36 36 -52 20 -10 -10 -17 -33 -18 -55 0 -31 -3 -37 -20 -35 -59 7 -81 -20
-50 -61 19 -25 19 -70 1 -85 -29 -25 -47 27 -53 156 -7 159 -10 155 143 161
66 2 121 6 123 8 2 2 -10 42 -28 90 -17 47 -31 94 -31 103 0 9 -9 34 -21 55
-33 61 -47 155 -49 314 -2 167 -2 155 5 203 3 20 1 54 -4 75 -6 25 -9 31 -10
16 -2 -41 -19 -62 -51 -62 -34 0 -37 7 -15 36 8 10 15 27 15 37 0 10 7 25 15
33 8 9 15 24 15 35 0 10 4 19 8 19 5 0 10 102 11 228 3 236 5 267 14 292 3 8
8 47 11 85 4 39 11 117 17 175 5 58 12 128 15 155 9 102 14 119 41 170 9 17
30 57 47 90 17 33 36 66 43 73 7 8 11 18 8 23 -4 5 -1 9 5 9 6 0 15 12 20 28
14 37 30 74 41 92 5 8 12 23 15 33 4 9 11 17 16 17 5 0 7 4 4 9 -3 4 3 18 13
30 10 12 25 36 32 54 7 17 19 36 26 40 7 4 13 17 13 27 0 11 5 20 10 20 6 0
10 6 10 13 0 7 9 23 20 35 11 12 20 28 20 35 0 8 7 20 15 27 8 7 15 19 15 26
0 8 5 14 10 14 6 0 10 5 10 10 0 6 10 22 23 35 31 34 38 42 84 110 49 71 156
175 210 205 21 11 69 43 108 70 38 28 90 57 115 66 94 34 170 67 170 76 0 4
-1343 8 -2985 8 l-2985 0 0 -2180z m5900 2148 c-25 -11 -66 -26 -91 -34 -25
-8 -81 -38 -123 -66 -43 -29 -96 -64 -119 -77 -59 -35 -162 -136 -210 -206
-46 -68 -53 -76 -84 -110 -13 -13 -23 -29 -23 -35 0 -5 -4 -10 -10 -10 -5 0
-10 -6 -10 -14 0 -7 -7 -19 -15 -26 -8 -7 -15 -19 -15 -27 0 -7 -9 -23 -20
-35 -11 -12 -20 -28 -20 -35 0 -7 -4 -13 -10 -13 -5 0 -10 -9 -10 -20 0 -10
-6 -23 -13 -27 -7 -4 -21 -27 -31 -50 -11 -24 -22 -43 -26 -43 -5 0 -15 -17
-24 -37 -9 -21 -20 -45 -25 -53 -11 -19 -28 -57 -41 -92 -5 -16 -14 -28 -20
-28 -5 0 -10 -9 -10 -19 0 -11 -3 -21 -8 -23 -4 -1 -21 -30 -38 -63 -17 -33
-38 -73 -46 -90 -32 -59 -38 -81 -43 -150 -2 -38 -9 -117 -15 -175 -5 -58 -13
-139 -16 -180 -4 -41 -10 -79 -14 -85 -8 -10 -10 -71 -13 -362 -1 -84 -5 -153
-9 -153 -5 0 -8 -9 -8 -19 0 -11 -7 -26 -15 -35 -8 -8 -15 -23 -15 -34 0 -10
-11 -31 -25 -46 -14 -15 -25 -31 -25 -37 0 -5 22 -9 50 -9 36 0 52 5 59 18 15
24 13 5 -4 -63 -11 -40 -12 -61 -5 -63 6 -2 10 -53 10 -135 0 -143 16 -241 49
-303 12 -21 21 -46 21 -56 0 -9 13 -52 29 -96 l30 -80 -120 -3 c-149 -5 -149
-5 -148 -133 0 -115 11 -183 33 -204 40 -40 76 51 41 105 -20 30 -14 37 33 38
36 0 37 1 40 40 4 54 15 62 47 32 22 -20 30 -40 41 -108 7 -46 14 -87 14 -91
0 -15 -52 -58 -70 -58 -31 0 -23 -23 19 -53 42 -29 70 -34 89 -15 17 17 15 5
-5 -37 -16 -34 -16 -35 7 -60 18 -19 33 -25 55 -23 26 3 30 7 33 36 2 17 -6
58 -17 90 -11 31 -20 73 -20 92 1 19 -2 73 -6 120 l-8 84 56 -48 c31 -26 67
-65 79 -85 24 -38 24 -39 63 -86 14 -16 25 -37 25 -46 0 -9 8 -19 18 -21 9 -3
28 -25 41 -50 l23 -45 -71 -71 c-39 -38 -71 -74 -71 -79 0 -23 27 -63 43 -63
9 0 17 -4 17 -10 0 -5 12 -13 28 -16 15 -4 45 -19 67 -34 88 -58 155 -73 155
-35 0 22 48 51 62 37 8 -8 6 -18 -6 -36 -22 -34 -20 -56 4 -56 11 0 20 5 20
10 0 6 9 10 20 10 20 0 25 -17 21 -66 -2 -24 41 -48 70 -39 19 6 27 35 9 35
-5 0 -7 6 -4 14 7 17 44 10 62 -12 6 -9 12 -29 12 -45 0 -29 1 -29 40 -24 22
3 40 3 40 0 0 -3 -9 -16 -20 -30 -27 -34 -25 -57 5 -81 37 -30 115 -132 122
-162 3 -14 23 -60 43 -102 l38 -78 -634 0 -634 0 23 47 c31 61 43 123 25 122
-7 0 -38 -29 -68 -63 -100 -113 -72 -106 -409 -106 l-293 0 38 38 c22 21 54
48 72 61 17 12 32 28 32 36 0 7 11 37 25 67 14 29 25 64 25 77 0 23 -2 24 -52
17 -29 -3 -68 -9 -87 -13 l-34 -6 6 39 c4 22 7 58 7 82 0 32 6 49 25 68 14 14
25 29 25 34 0 20 22 57 41 69 24 14 59 6 59 -15 0 -8 5 -14 10 -14 6 0 10 -9
10 -20 0 -19 24 -28 33 -12 3 4 13 79 23 166 15 137 16 174 5 265 -7 58 -19
119 -27 135 -8 16 -14 34 -14 40 0 6 -8 19 -17 28 -51 48 -56 67 -25 101 18
20 26 34 69 115 51 95 65 160 124 562 11 74 35 124 84 180 21 25 37 91 50 213
6 55 7 57 36 57 29 0 30 2 27 37 -3 35 -6 38 -35 41 -22 2 -46 18 -81 53 -28
28 -58 49 -71 49 -18 0 -20 4 -15 26 4 15 7 97 8 183 1 189 -24 347 -62 389
-13 13 -28 35 -33 48 -7 20 -5 24 11 24 11 0 20 7 20 15 0 8 -4 15 -10 15 -5
0 -10 9 -10 19 0 11 -4 22 -8 25 -5 3 -7 19 -4 36 4 25 1 30 -16 30 -11 0 -27
6 -35 14 -8 8 -27 16 -43 18 -23 2 -28 7 -26 25 2 17 -3 24 -22 29 -16 4 -26
13 -26 24 0 10 -14 25 -35 34 -19 9 -35 20 -35 24 0 22 -52 62 -100 77 -30 9
-72 26 -92 36 -20 11 -42 19 -48 19 -10 0 -21 8 -55 38 -7 6 -21 12 -31 12 -9
0 -31 10 -48 23 -42 31 -107 51 -148 44 -18 -3 -63 0 -99 6 -54 9 -85 7 -169
-6 -111 -19 -140 -30 -140 -52 0 -8 -6 -15 -13 -15 -14 0 -40 -40 -36 -56 1
-5 -3 -22 -10 -38 -7 -17 -11 -44 -9 -60 2 -25 8 -32 31 -34 15 -2 27 -9 27
-18 0 -10 -5 -12 -17 -5 -10 5 -26 12 -35 15 -10 3 -18 15 -18 26 0 23 -31 28
-49 6 -12 -14 -61 -10 -61 5 0 23 -28 5 -36 -23 -8 -26 -16 -34 -37 -36 -19
-2 -27 1 -27 12 0 24 -31 19 -37 -5 -6 -20 -10 -21 -75 -15 l-69 6 -10 -30
c-7 -19 -18 -30 -30 -30 -10 0 -19 -4 -19 -10 0 -5 -16 -10 -35 -10 -38 0 -45
-15 -18 -35 16 -12 16 -14 1 -29 -9 -9 -24 -16 -32 -16 -9 0 -16 -6 -16 -13 0
-7 -8 -20 -17 -28 -34 -30 -52 -58 -62 -94 -5 -21 -18 -43 -27 -50 -12 -9 -18
-28 -19 -68 -1 -31 -7 -62 -12 -69 -24 -31 -17 -326 12 -493 7 -44 13 -108 12
-142 -2 -66 18 -103 55 -103 10 0 18 -6 18 -13 0 -7 8 -17 19 -24 16 -10 18
-18 10 -59 -5 -28 -5 -50 0 -53 13 -8 16 -40 8 -78 -19 -90 -19 -93 -3 -93 9
0 16 -4 16 -10 0 -13 47 -13 55 0 3 5 7 66 9 134 3 118 4 126 27 145 15 12 29
16 39 11 8 -4 38 -13 67 -20 50 -11 52 -13 55 -48 2 -26 8 -38 21 -40 9 -2 17
2 17 10 0 17 63 53 68 39 2 -6 20 -11 40 -11 19 0 44 -7 53 -16 13 -12 43 -18
106 -21 49 -2 119 -9 157 -15 61 -9 71 -8 81 6 7 9 26 16 43 16 17 0 34 5 37
10 3 6 19 10 36 10 24 0 29 -4 29 -24 0 -14 -4 -36 -10 -50 -15 -40 -85 -104
-129 -117 -48 -14 -59 -45 -13 -36 15 3 35 9 44 12 12 5 20 1 25 -11 9 -26 23
-34 56 -34 24 0 31 7 49 48 11 26 25 49 29 52 5 3 18 28 30 55 12 28 25 52 28
55 11 8 38 73 46 108 4 18 13 45 21 60 8 15 14 39 14 55 0 15 2 27 4 27 2 0
11 3 20 6 11 4 16 1 16 -10 0 -19 26 -22 33 -3 3 6 8 -8 12 -31 4 -24 14 -46
21 -49 8 -3 14 -18 14 -33 0 -16 5 -32 10 -35 6 -3 10 -19 10 -35 0 -16 5 -32
10 -35 6 -3 10 -12 10 -19 0 -19 89 -153 106 -160 19 -7 18 -26 -1 -26 -8 0
-15 -4 -15 -10 0 -5 -8 -10 -19 -10 -10 0 -21 -9 -24 -20 -4 -15 -14 -20 -36
-20 -17 0 -31 -4 -31 -9 0 -21 -34 -41 -70 -41 -32 0 -39 4 -44 26 -6 24 -10
25 -43 19 -35 -6 -42 -9 -98 -37 -16 -9 -45 -19 -62 -23 -26 -5 -33 -12 -33
-29 0 -47 68 -75 172 -73 47 1 61 -3 78 -20 11 -12 20 -29 20 -38 0 -18 29
-20 64 -4 18 8 42 8 92 0 82 -15 126 -36 122 -59 -4 -22 -53 -28 -85 -11 -16
9 -27 10 -31 3 -15 -21 -91 -37 -153 -31 -72 6 -180 -17 -268 -60 -31 -14 -68
-26 -83 -25 -15 1 -29 -2 -33 -8 -3 -5 -17 -10 -30 -10 -37 0 -55 -10 -71 -42
-13 -25 -13 -34 -2 -59 11 -25 18 -30 41 -26 23 3 31 -1 38 -20 5 -12 12 -23
17 -23 5 0 9 -13 8 -30 -1 -34 -6 -36 -49 -16 -18 8 -45 18 -62 23 -16 5 -34
19 -40 31 -6 14 -19 22 -35 22 -40 0 -70 11 -70 26 0 8 -10 14 -25 14 -22 0
-25 -4 -23 -27 2 -21 -2 -28 -22 -33 -14 -3 -29 -16 -35 -28 -5 -12 -15 -22
-22 -22 -7 0 -13 -4 -13 -10 0 -5 -16 -10 -35 -10 l-35 0 4 -61 c3 -46 9 -66
26 -81 20 -19 20 -21 5 -38 -17 -19 -13 -60 5 -60 5 0 23 -20 41 -45 18 -25
38 -45 46 -45 7 0 13 -9 13 -20 0 -11 5 -20 11 -20 6 0 17 -7 25 -15 9 -8 11
-15 5 -15 -20 0 -11 -28 14 -44 20 -13 24 -22 19 -39 -4 -12 -11 -24 -15 -25
-16 -6 -9 -21 27 -57 35 -35 41 -64 17 -73 -7 -2 -13 3 -13 12 0 10 -9 16 -21
16 -20 0 -21 -4 -16 -45 4 -24 3 -46 -2 -49 -11 -7 -101 73 -101 90 0 7 -6 19
-14 27 -21 21 -46 85 -46 118 0 16 -5 29 -11 29 -7 0 -8 11 -4 30 5 22 3 32
-9 36 -13 5 -16 25 -16 110 0 97 -1 104 -20 104 -23 0 -26 -11 -39 -135 -9
-91 -5 -139 22 -250 8 -33 23 -105 33 -160 13 -75 23 -105 40 -120 29 -27 39
-84 17 -100 -9 -7 -14 -19 -10 -28 7 -19 137 -132 225 -196 l64 -46 -998 -3
c-548 -1 -999 0 -1002 2 -2 3 20 40 49 83 29 43 60 94 69 113 30 64 61 109 81
115 10 4 25 12 31 19 7 6 48 34 91 60 68 43 78 52 75 75 -3 25 -6 26 -68 29
-81 4 -128 -9 -168 -48 -31 -29 -34 -30 -65 -17 -17 8 -37 20 -43 28 -9 11
-56 152 -80 237 -2 6 -15 12 -29 12 -34 0 -43 26 -22 62 21 37 21 60 1 101
-31 61 -53 77 -106 77 -64 0 -98 -19 -126 -69 -14 -25 -30 -41 -42 -41 -10 0
-22 -5 -25 -10 -10 -16 -78 -12 -104 6 -27 19 -306 39 -356 26 -29 -8 -30 -10
-37 -88 -4 -44 -13 -120 -20 -169 -13 -90 -13 -90 -41 -87 -23 2 -27 -1 -27
-21 0 -17 -7 -27 -22 -31 -13 -3 -25 -1 -26 4 -4 12 -29 13 -34 3 -5 -14 -69
-43 -79 -37 -5 3 -9 880 -9 2175 l0 2169 2968 -1 2967 0 -45 -21z m-2970
-1232 c0 -2 -7 -7 -16 -10 -8 -3 -12 -2 -9 4 6 10 25 14 25 6z m-43 -88 c-3
-8 -6 -5 -6 6 -1 11 2 17 5 13 3 -3 4 -12 1 -19z m133 -2133 c0 -8 8 -15 18
-15 14 0 14 -2 3 -9 -19 -12 -38 -4 -44 20 -3 12 0 19 9 19 8 0 14 -7 14 -15z
m-163 -121 c-3 -3 -12 -4 -19 -1 -8 3 -5 6 6 6 11 1 17 -2 13 -5z m2128 -188
c9 -29 15 -62 13 -72 -5 -29 -41 -28 -68 1 -15 16 -19 25 -10 25 7 0 11 3 7 6
-3 4 0 19 8 35 9 16 15 32 14 36 -3 15 1 23 10 23 5 0 17 -24 26 -54z m-1945
-426 c0 -5 -2 -10 -4 -10 -3 0 -8 5 -11 10 -3 6 -1 10 4 10 6 0 11 -4 11 -10z"/>
<path d="M1662 4168 c2 -12 11 -24 21 -26 14 -3 18 1 15 20 -2 12 -11 24 -21
26 -14 3 -18 -1 -15 -20z m28 -9 c0 -6 -4 -7 -10 -4 -5 3 -10 11 -10 16 0 6 5
7 10 4 6 -3 10 -11 10 -16z"/>
<path d="M1740 4155 c0 -29 3 -36 18 -33 11 2 17 13 17 33 0 20 -6 31 -17 33
-15 3 -18 -4 -18 -33z m30 0 c0 -8 -4 -17 -10 -20 -6 -4 -10 5 -10 20 0 15 4
24 10 20 6 -3 10 -12 10 -20z"/>
<path d="M1870 3635 c0 -8 4 -15 8 -15 5 0 15 -11 22 -25 7 -14 19 -25 27 -25
20 0 16 37 -7 60 -24 24 -50 26 -50 5z m60 -49 c0 -5 -7 -1 -15 10 -8 10 -14
24 -14 29 0 6 6 1 14 -9 8 -11 15 -24 15 -30z"/>
<path d="M1564 3573 c-36 -7 -54 -35 -48 -73 5 -29 14 -39 50 -57 57 -30 114
-31 114 -3 0 11 -5 20 -10 20 -6 0 -8 11 -4 26 7 27 7 27 -40 22 -25 -3 -46
-2 -46 3 0 5 7 9 15 9 8 0 15 5 15 10 0 6 11 10 25 10 18 0 25 5 25 20 0 17
-6 20 -37 19 -21 -1 -48 -4 -59 -6z m86 -13 c0 -5 -11 -10 -25 -10 -14 0 -25
-4 -25 -10 0 -5 -7 -10 -15 -10 -17 0 -20 -28 -5 -50 9 -13 12 -13 21 3 5 9
22 17 36 17 22 0 24 -2 12 -16 -11 -14 -11 -18 4 -29 45 -32 -15 -35 -77 -2
-67 34 -67 94 -1 110 36 9 75 7 75 -3z"/>
<path d="M1740 3555 c0 -8 8 -19 19 -24 33 -18 33 -38 0 -33 -24 4 -29 1 -29
-17 0 -12 -6 -21 -15 -21 -20 0 -20 -49 0 -56 8 -3 42 0 76 8 47 10 67 20 83
41 19 26 19 29 4 55 -10 16 -31 31 -51 37 -20 6 -39 13 -43 18 -13 13 -44 8
-44 -8z m34 -4 c3 -5 21 -12 40 -15 20 -4 41 -16 50 -30 14 -22 14 -26 -5 -50
-13 -17 -34 -27 -67 -32 -70 -12 -76 -11 -80 11 -2 11 -1 17 3 13 12 -12 35
11 28 28 -6 17 10 18 39 3 11 -6 22 -8 25 -6 7 8 -17 50 -41 69 -11 10 -16 18
-9 18 6 0 14 -4 17 -9z"/>
<path d="M910 3065 c0 -8 7 -15 15 -15 8 0 15 -5 15 -11 0 -31 66 -51 77 -24
6 18 -23 44 -49 45 -10 0 -18 5 -18 10 0 6 -9 10 -20 10 -11 0 -20 -7 -20 -15z
m83 -29 c24 -19 4 -31 -23 -14 -11 7 -20 16 -20 20 0 12 23 9 43 -6z"/>
<path d="M1093 2855 c-21 -24 -16 -47 10 -43 16 2 23 11 25 31 4 30 -14 36
-35 12z m18 -28 c-16 -16 -25 -1 -10 16 8 8 16 11 18 5 2 -5 -2 -15 -8 -21z"/>
<path d="M1000 2825 c0 -8 9 -15 20 -15 11 0 20 7 20 15 0 8 -9 15 -20 15 -11
0 -20 -7 -20 -15z"/>
<path d="M4510 2825 c0 -8 7 -15 15 -15 8 0 15 7 15 15 0 8 -7 15 -15 15 -8 0
-15 -7 -15 -15z"/>
<path d="M190 2750 c0 -13 7 -20 20 -20 13 0 20 7 20 20 0 13 -7 20 -20 20
-13 0 -20 -7 -20 -20z m30 0 c0 -5 -4 -10 -10 -10 -5 0 -10 5 -10 10 0 6 5 10
10 10 6 0 10 -4 10 -10z"/>
<path d="M4590 2265 c0 -8 7 -15 15 -15 8 0 15 7 15 15 0 8 -7 15 -15 15 -8 0
-15 -7 -15 -15z"/>
<path d="M2302 2215 c-15 -33 -15 -67 0 -100 20 -44 70 -19 110 54 11 21 10
25 -17 47 -40 32 -78 31 -93 -1z m79 -6 l29 -21 -27 -38 c-37 -51 -71 -60 -64
-17 0 4 -3 7 -9 7 -13 0 -13 33 2 65 14 30 31 32 69 4z"/>
<path d="M2740 2113 c0 -29 23 -83 35 -83 18 0 19 16 4 59 -9 27 -39 45 -39
24z m39 -68 c0 -5 -4 -3 -9 5 -5 8 -9 22 -9 30 0 16 17 -16 18 -35z"/>
<path d="M2043 2093 c-25 -5 -31 -29 -10 -36 8 -2 12 -25 12 -63 1 -32 6 -69
13 -81 7 -12 12 -38 12 -57 0 -37 8 -43 38 -27 9 5 47 12 83 15 l66 7 9 -33
c5 -18 17 -34 26 -36 13 -3 18 9 23 60 4 35 5 86 3 113 l-3 50 -53 3 c-62 4
-68 25 -9 30 34 3 37 6 37 33 0 28 -1 29 -50 29 -33 0 -52 -5 -57 -15 -6 -10
-19 -13 -46 -8 -20 3 -37 10 -37 14 0 9 -17 10 -57 2z m44 -16 c-4 -10 8 -14
48 -15 38 0 55 3 59 14 8 20 86 15 86 -6 0 -10 -11 -16 -31 -17 -35 -3 -62
-20 -56 -37 2 -6 28 -13 58 -16 l54 -5 3 -40 c6 -63 -8 -169 -20 -157 -5 5
-11 22 -11 37 l-2 27 -80 -7 c-44 -4 -88 -11 -97 -16 -16 -9 -18 -5 -18 31 0
22 0 43 1 46 0 4 -5 10 -11 14 -14 9 -20 130 -7 148 12 16 31 16 24 -1z"/>
<path d="M1468 2063 c-13 -3 -18 -15 -18 -44 0 -46 10 -53 65 -41 46 9 62 45
26 57 -12 3 -21 13 -21 21 0 14 -18 16 -52 7z m42 -17 c0 -8 9 -18 21 -21 29
-10 18 -28 -22 -36 -42 -9 -49 -5 -49 31 0 26 8 33 43 39 4 0 7 -5 7 -13z"/>
<path d="M3190 1935 c0 -8 7 -15 15 -15 8 0 15 7 15 15 0 8 -7 15 -15 15 -8 0
-15 -7 -15 -15z"/>
<path d="M3260 1895 c0 -8 7 -15 15 -15 8 0 15 7 15 15 0 8 -7 15 -15 15 -8 0
-15 -7 -15 -15z"/>
<path d="M2266 1659 c-3 -17 -6 -42 -6 -55 0 -34 -21 -40 -107 -33 -43 4 -81
5 -85 2 -12 -7 -9 -48 4 -61 9 -9 9 -12 0 -12 -7 0 -12 -7 -12 -15 0 -8 7 -15
15 -15 8 0 15 6 15 14 0 16 56 38 105 41 16 1 36 4 44 6 11 3 13 -35 13 -211
0 -118 -4 -257 -7 -307 -7 -87 -6 -93 12 -93 18 0 20 16 31 313 16 406 16 457
-2 457 -7 0 -16 -14 -20 -31z m21 -176 c-4 -93 -10 -255 -13 -360 -4 -108 -11
-193 -16 -193 -6 0 -7 34 -3 83 3 45 7 202 9 348 2 243 6 289 23 289 3 0 3
-75 0 -167z m-127 74 c14 2 36 1 50 -3 l25 -6 -23 -9 c-12 -4 -28 -6 -35 -3
-7 2 -29 -2 -49 -10 -32 -14 -38 -14 -48 -1 -21 25 -5 45 27 36 15 -4 39 -6
53 -4z"/>
<path d="M2880 1640 c0 -11 7 -20 15 -20 8 0 15 9 15 20 0 11 -7 20 -15 20 -8
0 -15 -9 -15 -20z"/>
<path d="M3660 1585 c0 -8 9 -15 20 -15 11 0 20 7 20 15 0 8 -9 15 -20 15 -11
0 -20 -7 -20 -15z"/>
<path d="M4312 1293 c4 -47 32 -57 49 -19 9 20 9 28 -4 40 -9 9 -23 16 -32 16
-13 0 -16 -8 -13 -37z m33 13 c12 -11 12 -16 0 -32 -8 -11 -15 -17 -16 -14 -6
30 -8 60 -4 60 4 0 13 -6 20 -14z"/>
<path d="M1436 1239 c-12 -38 -17 -122 -22 -339 l-4 -236 89 4 89 4 -6 -92 -5
-92 24 4 c26 3 37 41 38 128 l1 45 45 -3 45 -4 0 -45 c0 -40 2 -44 23 -41 18
2 23 10 25 47 l3 44 74 -5 c49 -3 84 0 105 9 18 7 41 13 51 13 11 0 23 10 28
24 5 12 13 122 17 242 l7 219 -134 18 c-166 22 -390 53 -446 62 -32 6 -44 4
-47 -6z m207 -29 c78 -11 202 -28 276 -37 l134 -18 -8 -209 c-4 -115 -11 -220
-16 -233 -5 -14 -17 -23 -29 -23 -12 0 -31 -5 -42 -11 -12 -6 -59 -11 -104
-10 l-83 2 -3 -42 c-4 -60 -28 -64 -28 -5 0 45 -1 46 -32 46 -18 0 -43 3 -55
6 -22 6 -23 3 -24 -42 0 -72 -12 -127 -28 -132 -12 -4 -13 11 -8 87 l7 92 -90
-3 -90 -3 5 225 c7 316 12 346 50 336 14 -4 89 -15 168 -26z"/>
<path d="M4750 1205 c0 -8 7 -15 15 -15 8 0 15 7 15 15 0 8 -7 15 -15 15 -8 0
-15 -7 -15 -15z"/>
<path d="M4272 1193 c5 -26 38 -29 38 -4 0 15 -6 21 -21 21 -14 0 -19 -5 -17
-17z m28 -3 c0 -5 -2 -10 -4 -10 -3 0 -8 5 -11 10 -3 6 -1 10 4 10 6 0 11 -4
11 -10z"/>
<path d="M4350 1095 c0 -8 6 -15 13 -15 6 0 19 -14 27 -30 38 -74 83 -140 96
-140 17 0 18 37 1 66 -41 71 -69 104 -87 104 -11 0 -20 7 -20 15 0 8 -7 15
-15 15 -8 0 -15 -7 -15 -15z m87 -66 c42 -63 55 -89 51 -101 -3 -7 -19 13 -36
43 -18 29 -40 64 -48 77 -10 13 -12 22 -5 22 6 0 23 -19 38 -41z"/>
<path d="M4441 731 c-12 -16 -21 -33 -21 -38 0 -11 -46 -131 -60 -155 -6 -10
-10 -27 -10 -39 0 -28 34 -21 38 9 2 12 8 22 13 22 5 0 9 9 9 19 0 11 9 23 20
26 11 3 20 13 20 21 0 8 4 14 8 14 14 0 31 45 38 100 6 46 5 50 -14 50 -11 0
-30 -13 -41 -29z m45 -18 c-9 -50 -26 -93 -37 -93 -5 0 -9 -6 -9 -14 0 -13
-20 -26 -40 -26 -5 0 0 21 10 46 11 25 20 50 20 56 0 15 40 68 52 68 6 0 8
-14 4 -37z m-90 -170 c-10 -10 -19 5 -10 18 6 11 8 11 12 0 2 -7 1 -15 -2 -18z
m-25 -46 c-8 -8 -11 -7 -11 4 0 20 13 34 18 19 3 -7 -1 -17 -7 -23z"/>
<path d="M2220 409 c0 -20 21 -49 35 -49 18 0 19 14 5 41 -11 20 -40 26 -40 8z
m30 -19 c6 -11 8 -20 6 -20 -3 0 -10 9 -16 20 -6 11 -8 20 -6 20 3 0 10 -9 16
-20z"/>
<path d="M3172 3701 c3 -18 1 -34 -4 -37 -4 -3 -8 5 -8 17 0 12 -3 20 -6 16
-3 -3 -3 -20 1 -37 l7 -32 14 27 c17 33 18 61 3 71 -8 5 -10 -3 -7 -25z"/>
<path d="M3280 3715 c7 -8 16 -15 21 -15 5 0 6 7 3 15 -4 8 -13 15 -21 15 -13
0 -13 -3 -3 -15z"/>
<path d="M3340 3700 c0 -5 5 -10 11 -10 5 0 7 5 4 10 -3 6 -8 10 -11 10 -2 0
-4 -4 -4 -10z"/>
<path d="M3111 3683 c1 -10 -2 -28 -6 -40 -5 -15 -3 -23 4 -23 12 0 15 7 25
53 5 20 2 27 -8 27 -8 0 -15 -8 -15 -17z"/>
<path d="M3360 3630 c0 -5 5 -10 11 -10 5 0 7 5 4 10 -3 6 -8 10 -11 10 -2 0
-4 -4 -4 -10z"/>
<path d="M3261 3593 c0 -6 -4 -20 -7 -30 -5 -14 -4 -15 5 -7 7 7 11 20 8 30
-3 11 -5 14 -6 7z"/>
<path d="M3311 3570 c-7 -17 -11 -34 -8 -36 8 -8 29 35 25 52 -2 9 -8 3 -17
-16z"/>
<path d="M3124 3569 c-17 -21 -25 -67 -14 -74 12 -8 32 41 28 68 -3 17 -5 18
-14 6z"/>
<path d="M3212 3567 c-6 -7 -7 -18 -3 -26 7 -10 10 -8 16 8 8 27 2 36 -13 18z"/>
<path d="M2730 3350 c0 -5 5 -10 10 -10 6 0 10 5 10 10 0 6 -4 10 -10 10 -5 0
-10 -4 -10 -10z"/>
<path d="M2696 3335 c4 -8 8 -15 10 -15 2 0 4 7 4 15 0 8 -4 15 -10 15 -5 0
-7 -7 -4 -15z"/>
<path d="M3370 3129 c0 -5 -4 -7 -10 -4 -5 3 -10 1 -10 -5 0 -6 -5 -8 -10 -5
-12 7 -72 -40 -63 -49 4 -3 1 -6 -5 -6 -7 0 -12 12 -12 28 l-1 27 -17 -30
c-60 -105 -87 -132 -63 -64 15 44 14 49 -9 49 -11 0 -30 -16 -45 -37 -15 -22
-25 -31 -25 -21 0 11 -6 15 -20 11 -14 -4 -20 0 -20 10 0 10 -6 13 -20 10 -16
-4 -19 -2 -14 11 3 9 1 16 -5 16 -6 0 -11 -4 -11 -9 0 -7 -44 -25 -45 -18 0 1
-13 -8 -29 -20 -16 -13 -37 -23 -48 -23 -10 0 -21 -7 -24 -15 -4 -8 -13 -15
-20 -15 -8 0 -17 -7 -20 -15 -4 -8 -10 -12 -15 -9 -5 3 -9 0 -9 -5 0 -22 -3
-27 -33 -55 -18 -18 -23 -27 -12 -23 15 6 16 5 5 -8 -7 -8 -10 -22 -6 -30 3
-8 0 -15 -6 -15 -6 0 -8 -3 -5 -7 4 -3 -1 -18 -10 -32 -9 -14 -23 -37 -30 -51
-7 -14 -13 -18 -13 -10 0 14 -25 -24 -52 -80 -17 -34 -34 -50 -43 -42 -5 4 -5
1 -1 -6 4 -7 -2 -28 -13 -48 -12 -20 -19 -39 -16 -44 3 -5 1 -11 -5 -15 -15
-9 -12 -117 4 -138 11 -14 22 -17 50 -12 32 6 36 5 36 -13 0 -20 22 -31 53
-24 11 2 17 13 17 33 0 40 36 88 61 82 10 -3 19 0 19 5 0 15 32 31 83 42 l42
9 -50 -4 c-41 -3 -45 -2 -25 6 28 11 130 33 203 44 64 9 50 27 -16 19 -35 -4
-47 -2 -38 4 8 6 10 15 5 23 -6 11 -5 12 7 3 16 -13 145 1 166 18 15 12 166 1
158 -12 -2 -4 -47 -11 -98 -15 -51 -3 -100 -11 -108 -16 -12 -9 171 -5 338 6
32 2 49 -14 44 -42 -1 -7 3 -23 10 -35 6 -13 -5 -4 -26 20 -20 23 -41 42 -48
42 -6 0 -1 -10 10 -22 11 -13 28 -38 38 -56 10 -22 21 -32 31 -28 8 3 14 1 14
-4 0 -6 -4 -10 -10 -10 -5 0 -10 -5 -10 -10 0 -7 22 -9 63 -5 34 4 79 8 100
10 46 4 62 15 24 15 -15 0 -27 3 -28 8 -2 26 -9 46 -18 55 -7 7 -2 21 16 43
22 29 31 34 69 34 l43 0 -26 -56 c-29 -65 -25 -82 7 -27 49 81 61 87 205 99
l130 11 -160 3 c-88 1 -169 2 -180 1 -13 0 -10 3 10 11 17 6 49 21 73 34 23
12 39 18 36 12 -4 -6 1 -8 16 -3 35 11 132 26 168 25 18 0 32 4 32 11 0 7 9 9
24 5 30 -7 42 17 20 39 -9 9 -13 22 -10 30 3 8 1 15 -4 15 -6 0 -10 7 -10 15
0 7 -8 18 -17 24 -13 7 -15 13 -7 21 15 15 -4 58 -29 66 -9 3 -15 9 -12 14 3
5 -7 12 -22 16 -15 4 -34 11 -40 17 -7 5 -13 6 -13 1 0 -5 -15 -9 -32 -9 -32
0 -33 2 -34 40 0 33 -4 41 -22 43 -14 2 -22 10 -22 22 0 13 -5 17 -14 14 -8
-3 -25 1 -38 10 -20 13 -28 13 -63 1 -24 -9 -43 -11 -50 -5 -7 6 -19 4 -32 -5
-20 -14 -21 -13 -16 6 6 21 4 21 -43 14 -27 -4 -53 -10 -59 -14 -5 -5 -29 -13
-53 -19 -41 -10 -42 -9 -36 11 4 11 16 29 28 39 14 13 16 18 6 16 -21 -3 -62
21 -55 33 10 15 -22 10 -39 -7 -15 -14 -16 -14 -16 0 0 9 -4 16 -10 16 -5 0
-10 -5 -10 -11z m74 -24 c22 -14 23 -19 13 -50 -6 -19 -8 -37 -5 -40 6 -7 98
14 113 25 6 4 26 10 47 14 33 6 36 5 31 -14 -6 -21 20 -29 32 -10 4 6 15 8 26
5 10 -4 35 -1 54 6 28 11 40 11 55 1 11 -7 27 -12 35 -12 8 0 15 -7 15 -15 0
-8 9 -15 19 -15 16 0 20 -8 23 -42 l3 -43 59 -3 c43 -2 65 -7 77 -21 10 -10
24 -22 31 -25 10 -5 10 -7 1 -12 -15 -7 -17 -34 -3 -34 6 0 10 -6 10 -14 0 -8
7 -16 14 -19 8 -3 18 -22 22 -41 3 -20 10 -36 15 -36 5 0 9 -4 9 -10 0 -5 -11
-10 -25 -10 -14 0 -25 -5 -25 -11 0 -7 -10 -9 -25 -5 -14 4 -34 2 -44 -4 -11
-5 -48 -11 -83 -13 -42 -2 -82 -12 -120 -30 -31 -15 -62 -27 -67 -27 -6 0 -11
-7 -11 -15 0 -11 12 -15 51 -15 48 0 50 -1 33 -17 -13 -13 -19 -14 -22 -5 -2
7 -23 12 -57 12 -49 0 -55 -3 -80 -36 -23 -29 -26 -40 -17 -57 30 -61 28 -65
-36 -69 l-59 -3 -13 45 c-7 25 -12 49 -11 54 1 6 -3 20 -10 33 -12 23 -16 23
-95 17 -79 -6 -83 -6 -78 13 5 18 -1 21 -48 26 -80 10 -123 8 -136 -5 -8 -8
-43 -13 -92 -13 -59 0 -80 -3 -80 -13 0 -9 -7 -11 -19 -7 -27 8 -71 -4 -71
-21 0 -7 8 -18 18 -23 15 -9 15 -10 -5 -11 -12 0 -47 -9 -78 -21 -67 -25 -125
-89 -125 -138 0 -26 -4 -31 -25 -31 -19 0 -25 5 -25 21 0 19 -4 21 -38 16 -31
-4 -41 -1 -50 14 -14 22 -16 92 -3 117 5 9 19 41 32 70 12 28 26 52 30 52 4 0
10 11 13 24 3 13 19 38 36 56 16 18 30 34 30 36 0 3 12 23 27 46 15 22 28 50
29 62 3 31 25 86 35 86 5 0 9 4 9 10 0 15 33 50 46 50 7 0 14 7 18 15 3 8 13
15 21 15 9 0 35 11 59 24 41 23 96 26 96 5 0 -5 9 -9 20 -9 11 0 20 -4 20 -10
0 -22 26 -8 48 25 26 42 46 47 32 9 -28 -72 3 -86 45 -20 20 32 32 42 46 39
11 -3 27 5 42 22 18 22 32 28 65 28 23 0 42 4 42 8 0 13 7 11 34 -6z m-476
-574 c10 -6 7 -10 -13 -15 -32 -8 -57 4 -29 15 25 10 27 10 42 0z m299 3 c-3
-3 -12 -4 -19 -1 -8 3 -5 6 6 6 11 1 17 -2 13 -5z m-467 -98 c0 -2 -8 -10 -17
-17 -16 -13 -17 -12 -4 4 13 16 21 21 21 13z"/>
<path d="M4340 2519 c0 -5 -4 -8 -9 -5 -5 3 -9 -12 -9 -33 -1 -42 11 -53 43
-40 11 4 14 8 8 8 -7 1 -13 10 -13 21 0 22 35 28 43 8 3 -7 6 -8 6 -2 1 15
-37 54 -54 54 -8 0 -15 -5 -15 -11z m28 -17 c-10 -2 -18 -11 -18 -19 0 -9 -3
-14 -6 -10 -3 3 -3 15 1 26 4 14 11 18 23 13 16 -6 16 -7 0 -10z"/>
<path d="M2935 2460 c-3 -5 -2 -10 4 -10 5 0 13 5 16 10 3 6 2 10 -4 10 -5 0
-13 -4 -16 -10z"/>
<path d="M4320 2370 c0 -5 6 -15 14 -23 8 -7 13 -30 12 -50 -1 -25 3 -37 12
-37 9 0 10 -5 3 -18 -7 -14 -5 -21 10 -30 33 -21 59 -15 59 13 0 17 -4 23 -14
19 -8 -3 -17 -1 -20 4 -3 6 5 13 19 16 27 7 39 36 33 82 -3 28 -5 29 -65 31
-35 1 -63 -2 -63 -7z m88 -15 c25 -5 32 -12 32 -30 0 -30 -25 -55 -56 -55 -21
0 -24 4 -24 40 0 22 -4 40 -10 40 -5 0 -10 5 -10 11 0 6 8 8 18 5 9 -2 32 -7
50 -11z"/>
<path d="M3751 2335 c0 -11 8 -38 19 -60 17 -34 19 -36 15 -11 -4 16 -12 43
-20 60 -10 23 -14 26 -14 11z"/>
<path d="M2756 2315 c4 -8 8 -15 10 -15 2 0 4 7 4 15 0 8 -4 15 -10 15 -5 0
-7 -7 -4 -15z"/>
<path d="M3501 2283 c-6 -26 -13 -59 -16 -73 l-6 -25 15 25 c16 26 32 107 23
116 -3 3 -10 -16 -16 -43z"/>
<path d="M2745 2190 c3 -5 8 -10 11 -10 2 0 4 5 4 10 0 6 -5 10 -11 10 -5 0
-7 -4 -4 -10z"/>
<path d="M4137 2184 c-12 -12 -8 -21 13 -27 10 -3 24 1 31 9 7 9 8 14 1 14 -6
0 -17 2 -24 5 -8 3 -17 2 -21 -1z"/>
<path d="M3790 2161 c0 -5 5 -13 10 -16 6 -3 10 -2 10 4 0 5 -4 13 -10 16 -5
3 -10 2 -10 -4z"/>
<path d="M4185 2140 c-11 -5 -28 -11 -39 -14 -15 -5 -16 -9 -6 -22 7 -8 19
-13 27 -10 7 3 13 1 13 -4 0 -6 4 -10 10 -10 5 0 7 7 3 16 -4 11 -1 15 13 12
13 -2 19 3 19 16 0 23 -12 28 -40 16z m32 -16 c-3 -3 -12 -4 -19 -1 -8 3 -5 6
6 6 11 1 17 -2 13 -5z m-40 -10 c-3 -3 -12 -4 -19 -1 -8 3 -5 6 6 6 11 1 17
-2 13 -5z"/>
<path d="M4366 2134 c-9 -24 -7 -44 4 -44 6 0 10 7 10 15 0 9 7 18 15 21 21 9
19 24 -4 24 -10 0 -22 -7 -25 -16z"/>
<path d="M4035 2050 c-6 -10 -15 -49 -12 -51 1 0 23 -3 50 -6 67 -7 97 2 96
30 0 12 -3 16 -6 10 -6 -17 -23 -16 -23 1 0 21 -93 36 -105 16z m63 -6 c19 -4
32 -14 36 -26 4 -19 1 -20 -40 -15 -51 5 -59 10 -51 32 7 17 12 18 55 9z"/>
<path d="M4185 1978 c-22 -5 -73 -8 -112 -5 -73 4 -89 -4 -57 -28 15 -10 14
-14 -10 -40 -14 -15 -26 -34 -26 -41 0 -8 -6 -14 -14 -14 -20 0 -28 -16 -32
-59 -4 -51 14 -89 40 -84 17 4 18 3 6 -6 -8 -5 -12 -12 -10 -13 29 -23 63 -38
71 -32 6 3 18 -1 28 -10 17 -15 19 -15 31 0 11 12 11 17 1 23 -10 6 -9 10 4
15 28 10 45 7 67 -14 12 -11 29 -20 37 -20 14 1 13 3 -1 14 -10 7 -15 15 -13
18 3 3 7 44 9 92 4 62 11 100 26 131 20 40 20 87 2 84 -4 -1 -25 -5 -47 -11z
m49 -16 c3 -5 -4 -27 -15 -49 -14 -28 -22 -71 -26 -132 -3 -51 -10 -94 -15
-97 -4 -3 -8 0 -8 5 0 13 -59 14 -79 2 -8 -5 -11 -16 -8 -25 5 -12 3 -14 -11
-6 -9 5 -29 11 -44 15 -19 4 -28 12 -28 25 0 12 -7 20 -18 20 -25 0 -39 30
-34 74 3 27 10 40 23 43 11 3 19 11 19 18 0 7 12 25 26 40 15 16 24 35 21 46
-4 16 3 19 72 22 42 1 86 4 98 5 12 1 24 -2 27 -6z"/>
<path d="M4135 1670 c-3 -5 -1 -10 4 -10 6 0 11 5 11 10 0 6 -2 10 -4 10 -3 0
-8 -4 -11 -10z"/>
<path d="M3447 1375 c3 -9 11 -14 17 -12 6 2 24 -9 39 -25 33 -32 38 -33 77
-13 17 9 30 12 30 7 0 -13 44 -12 52 1 6 9 8 9 8 0 0 -9 16 -13 45 -13 38 0
45 3 45 20 0 14 -9 21 -34 26 -19 3 -39 3 -44 0 -5 -3 -36 -1 -68 4 -32 5 -85
12 -116 15 -49 4 -57 3 -51 -10z m195 -21 c19 -12 6 -23 -16 -13 -18 8 -30 7
-53 -5 -30 -15 -32 -14 -59 11 l-28 26 74 -7 c41 -4 78 -10 82 -12z m86 0 c34
-10 26 -24 -13 -24 -33 0 -43 8 -28 23 8 8 12 8 41 1z"/>
<path d="M3290 1355 c0 -8 73 -24 84 -18 6 4 0 10 -14 14 -30 8 -70 11 -70 4z"/>
<path d="M3329 1074 c-13 -7 -32 -13 -42 -14 -24 0 -18 -29 11 -56 26 -23 64
-24 90 -1 10 8 24 15 32 15 8 1 37 2 63 3 51 2 75 24 63 56 -6 14 -8 14 -24
-1 -22 -19 -92 -22 -92 -3 0 17 -70 18 -101 1z m61 -15 c0 -5 14 -9 30 -9 17
0 30 -4 30 -10 0 -5 -13 -10 -29 -10 -16 0 -34 -7 -41 -15 -23 -27 -90 -9 -90
25 0 12 44 21 48 10 2 -6 11 -10 19 -10 10 0 14 6 10 19 -3 14 -1 18 9 14 8
-3 14 -9 14 -14z m140 -9 c-6 -12 -16 -17 -26 -13 -12 4 -11 8 8 18 13 7 24
13 26 14 1 1 -2 -8 -8 -19z"/>
<path d="M2971 924 c0 -11 3 -14 6 -6 3 7 2 16 -1 19 -3 4 -6 -2 -5 -13z"/>
<path d="M3075 817 c-10 -24 10 -46 27 -29 8 8 9 12 1 12 -6 0 -13 8 -16 18
-4 16 -4 16 -12 -1z"/>
<path d="M300 800 c0 -24 15 -27 24 -4 9 22 8 24 -9 24 -8 0 -15 -9 -15 -20z"/>
<path d="M417 813 c-4 -3 -7 -21 -7 -38 0 -44 -20 -58 -70 -50 -32 5 -40 4
-40 -9 0 -8 5 -18 11 -21 7 -5 3 -14 -10 -26 -23 -22 -27 -44 -10 -55 8 -4 7
-9 -2 -15 -11 -7 -10 -9 4 -9 9 0 17 6 17 13 0 6 17 17 37 24 32 10 41 9 55
-3 9 -9 18 -12 21 -7 2 4 8 52 11 106 7 89 2 110 -17 90z m10 -50 c-3 -10 -5
-4 -5 12 0 17 2 24 5 18 2 -7 2 -21 0 -30z m-7 -84 c0 -45 -2 -50 -15 -39 -13
11 -23 11 -54 0 -54 -17 -71 -10 -40 18 19 19 21 26 12 41 -11 17 -8 18 31 14
26 -3 46 -1 50 6 13 20 16 12 16 -40z"/>
<path d="M357 783 c-12 -11 -8 -23 7 -23 8 0 16 7 20 15 5 15 -14 21 -27 8z"/>
<path d="M725 767 l-29 -24 25 -13 c13 -7 36 -23 52 -36 15 -13 54 -28 87 -35
33 -6 67 -20 76 -30 9 -11 21 -19 26 -19 5 0 17 -7 26 -16 11 -11 17 -13 20
-5 2 6 -15 33 -38 59 -58 66 -61 70 -58 84 2 8 -5 12 -17 11 -10 -1 -32 7 -47
18 -46 33 -90 35 -123 6z m128 -25 c41 -26 48 -32 97 -95 l24 -32 -24 21 c-14
12 -51 27 -82 34 -35 7 -71 23 -94 41 -20 16 -42 29 -48 29 -6 1 0 10 13 21
29 24 54 20 114 -19z"/>
<path d="M470 583 c-8 -3 -17 -9 -20 -12 -3 -4 -18 -13 -35 -20 l-30 -14 29
-6 c23 -5 36 0 58 19 38 33 38 48 -2 33z"/>
<path d="M3047 496 c-3 -8 -2 -18 3 -21 13 -8 20 9 11 24 -6 10 -10 9 -14 -3z"/>
<path d="M3623 239 c-18 -5 -33 -13 -33 -18 0 -23 -161 -41 -257 -29 -24 3
-40 -2 -59 -19 -15 -13 -33 -23 -39 -23 -16 0 -27 -27 -14 -35 5 -4 8 -14 7
-22 -2 -10 5 -17 19 -18 13 -1 24 -4 25 -6 2 -2 10 -17 18 -34 l16 -30 158 -3
159 -3 45 36 c25 19 48 35 52 35 4 0 5 11 3 24 -3 13 2 38 11 55 9 17 15 31
14 32 -2 0 -14 3 -27 5 -33 6 -35 9 -22 32 8 16 7 21 -6 27 -10 3 -19 1 -21
-4 -2 -6 -8 -11 -13 -11 -6 0 -7 5 -4 10 3 6 5 10 3 9 -2 0 -18 -5 -35 -10z
m59 -35 c-3 -16 2 -23 22 -28 22 -5 25 -9 16 -26 -5 -10 -10 -27 -10 -36 0
-10 -21 -37 -46 -61 l-46 -44 -151 3 -152 3 -15 33 c-8 18 -25 35 -37 38 -13
3 -23 10 -23 14 0 5 -3 15 -6 24 -4 10 -1 16 9 16 9 0 23 8 33 17 14 14 38 18
118 21 133 3 163 6 172 14 4 4 18 5 30 2 19 -5 24 -2 24 13 0 16 7 19 33 19
28 -1 33 -4 29 -22z"/>
<path d="M3169 186 c-15 -12 -19 -47 -5 -57 11 -9 46 1 46 12 0 5 -5 9 -11 9
-6 0 -3 7 5 16 20 19 20 21 -2 26 -10 3 -25 0 -33 -6z m24 -13 c-7 -2 -13 -12
-13 -20 0 -9 -3 -14 -6 -10 -10 10 4 37 18 36 10 0 10 -2 1 -6z"/>
<path d="M3225 170 c-3 -5 -1 -10 4 -10 6 0 11 5 11 10 0 6 -2 10 -4 10 -3 0
-8 -4 -11 -10z"/>
</g>
</svg>
